# MagicaVoxel @ ephtracy

# material
mtllib Dirt.mtl
usemtl palette

# normals
vn -1 0 0
vn 1 0 0
vn 0 0 1
vn 0 0 -1
vn 0 -1 0
vn 0 1 0

# texcoords
vt 0.263672 0.5
vt 0.310547 0.5
vt 0.357422 0.5
vt 0.365234 0.5
vt 0.560547 0.5
vt 0.904297 0.5
vt 0.970703 0.5
vt 0.974609 0.5
vt 0.978516 0.5
vt 0.982422 0.5

# verts
v -5 0 5
v -5 0 -5
v -5 2 -3
v -5 2 -4
v -5 3 3
v -5 3 2
v -5 3 1
v -5 3 -0
v -5 3 -1
v -5 3 -3
v -5 4 2
v -5 4 1
v -5 4 -1
v -5 4 -2
v -5 4 -3
v -5 4 -4
v -5 4 -5
v -5 5 5
v -5 5 3
v -5 5 -0
v -5 5 -1
v -5 5 -2
v -5 5 -4
v -5 6 -1
v -5 6 -2
v -5 6 -4
v -5 6 -5
v -5 8 5
v -5 8 -5
v -5 10 5
v -5 10 -5
v 5 0 5
v 5 0 -5
v 5 2 3
v 5 2 1
v 5 3 5
v 5 3 3
v 5 3 2
v 5 3 1
v 5 3 -0
v 5 3 -2
v 5 3 -5
v 5 4 5
v 5 4 3
v 5 4 2
v 5 4 -0
v 5 4 -2
v 5 4 -3
v 5 4 -4
v 5 5 3
v 5 5 1
v 5 5 -0
v 5 5 -1
v 5 5 -4
v 5 5 -5
v 5 6 1
v 5 6 -0
v 5 6 -1
v 5 6 -3
v 5 8 5
v 5 8 -5
v 5 10 5
v 5 10 -5
v -5 0 5
v -5 5 5
v -5 8 5
v -5 10 5
v -4 5 5
v -4 6 5
v -3 4 5
v -3 5 5
v -3 6 5
v -2 4 5
v -2 5 5
v -1 4 5
v -1 5 5
v 0 3 5
v 0 4 5
v 0 5 5
v 0 6 5
v 1 3 5
v 1 4 5
v 1 5 5
v 1 6 5
v 2 3 5
v 2 4 5
v 2 5 5
v 3 2 5
v 3 3 5
v 3 4 5
v 3 5 5
v 4 2 5
v 4 3 5
v 4 4 5
v 4 5 5
v 5 0 5
v 5 3 5
v 5 4 5
v 5 8 5
v 5 10 5
v -5 0 -5
v -5 4 -5
v -5 6 -5
v -5 8 -5
v -5 10 -5
v -3 2 -5
v -3 4 -5
v -3 5 -5
v -3 6 -5
v -2 2 -5
v -2 4 -5
v -2 5 -5
v -2 6 -5
v -1 2 -5
v -1 4 -5
v -1 5 -5
v -1 6 -5
v 0 2 -5
v 0 3 -5
v 0 5 -5
v 0 6 -5
v 1 3 -5
v 1 4 -5
v 1 5 -5
v 1 6 -5
v 2 3 -5
v 2 4 -5
v 2 5 -5
v 2 6 -5
v 3 3 -5
v 3 4 -5
v 4 3 -5
v 4 4 -5
v 4 5 -5
v 4 6 -5
v 5 0 -5
v 5 3 -5
v 5 5 -5
v 5 8 -5
v 5 10 -5
v -5 0 5
v 5 0 5
v -4 0 4
v 4 0 4
v -4 0 -4
v 4 0 -4
v -5 0 -5
v 5 0 -5
v -5 10 5
v 5 10 5
v -5 10 -5
v 5 10 -5

# faces
f 3/10/1 2/10/1 1/10/1
f 4/10/1 2/10/1 3/10/1
f 5/10/1 3/10/1 1/10/1
f 6/10/1 3/10/1 5/10/1
f 7/10/1 3/10/1 6/10/1
f 8/10/1 3/10/1 7/10/1
f 9/10/1 3/10/1 8/10/1
f 10/8/1 4/8/1 3/8/1
f 10/10/1 3/10/1 9/10/1
f 11/8/1 6/8/1 5/8/1
f 11/10/1 7/10/1 6/10/1
f 12/8/1 8/8/1 7/8/1
f 12/10/1 7/10/1 11/10/1
f 13/10/1 9/10/1 8/10/1
f 13/9/1 10/9/1 9/9/1
f 14/9/1 10/9/1 13/9/1
f 15/8/1 4/8/1 10/8/1
f 15/9/1 10/9/1 14/9/1
f 16/10/1 2/10/1 4/10/1
f 16/8/1 4/8/1 15/8/1
f 17/10/1 2/10/1 16/10/1
f 18/10/1 5/10/1 1/10/1
f 19/8/1 12/8/1 11/8/1
f 19/10/1 5/10/1 18/10/1
f 19/8/1 11/8/1 5/8/1
f 20/8/1 8/8/1 12/8/1
f 20/8/1 12/8/1 19/8/1
f 20/10/1 14/10/1 13/10/1
f 20/10/1 13/10/1 8/10/1
f 21/10/1 14/10/1 20/10/1
f 22/9/1 15/9/1 14/9/1
f 22/10/1 14/10/1 21/10/1
f 22/9/1 16/9/1 15/9/1
f 22/9/1 17/9/1 16/9/1
f 23/9/1 17/9/1 22/9/1
f 24/8/1 21/8/1 20/8/1
f 24/8/1 19/8/1 18/8/1
f 24/8/1 20/8/1 19/8/1
f 24/10/1 22/10/1 21/10/1
f 25/8/1 23/8/1 22/8/1
f 25/10/1 22/10/1 24/10/1
f 26/9/1 17/9/1 23/9/1
f 26/8/1 23/8/1 25/8/1
f 27/9/1 17/9/1 26/9/1
f 28/8/1 25/8/1 24/8/1
f 28/8/1 24/8/1 18/8/1
f 28/8/1 27/8/1 26/8/1
f 28/8/1 26/8/1 25/8/1
f 29/8/1 27/8/1 28/8/1
f 30/7/1 29/7/1 28/7/1
f 31/7/1 29/7/1 30/7/1
f 32/10/2 33/10/2 34/10/2
f 34/10/2 33/10/2 35/10/2
f 32/10/2 34/10/2 36/10/2
f 34/9/2 35/9/2 37/9/2
f 36/10/2 34/10/2 37/10/2
f 37/9/2 35/9/2 38/9/2
f 35/10/2 33/10/2 39/10/2
f 38/9/2 35/9/2 39/9/2
f 39/10/2 33/10/2 40/10/2
f 40/10/2 33/10/2 41/10/2
f 41/10/2 33/10/2 42/10/2
f 36/9/2 37/9/2 43/9/2
f 37/10/2 38/10/2 44/10/2
f 43/9/2 37/9/2 44/9/2
f 38/9/2 39/9/2 45/9/2
f 44/10/2 38/10/2 45/10/2
f 39/9/2 40/9/2 45/9/2
f 40/10/2 41/10/2 46/10/2
f 45/9/2 40/9/2 46/9/2
f 41/9/2 42/9/2 47/9/2
f 46/10/2 41/10/2 47/10/2
f 47/9/2 42/9/2 48/9/2
f 48/9/2 42/9/2 49/9/2
f 43/8/2 44/8/2 50/8/2
f 45/9/2 46/9/2 50/9/2
f 44/9/2 45/9/2 50/9/2
f 47/9/2 48/9/2 50/9/2
f 46/9/2 47/9/2 50/9/2
f 50/9/2 48/9/2 51/9/2
f 51/9/2 48/9/2 52/9/2
f 52/9/2 48/9/2 53/9/2
f 49/9/2 42/9/2 54/9/2
f 48/8/2 49/8/2 54/8/2
f 54/9/2 42/9/2 55/9/2
f 50/8/2 51/8/2 56/8/2
f 51/9/2 52/9/2 56/9/2
f 52/8/2 53/8/2 57/8/2
f 56/9/2 52/9/2 57/9/2
f 53/9/2 48/9/2 58/9/2
f 57/8/2 53/8/2 58/8/2
f 54/8/2 55/8/2 59/8/2
f 58/9/2 48/9/2 59/9/2
f 48/8/2 54/8/2 59/8/2
f 56/8/2 57/8/2 60/8/2
f 50/8/2 56/8/2 60/8/2
f 58/8/2 59/8/2 60/8/2
f 57/8/2 58/8/2 60/8/2
f 43/8/2 50/8/2 60/8/2
f 59/8/2 55/8/2 61/8/2
f 60/8/2 59/8/2 61/8/2
f 60/7/2 61/7/2 62/7/2
f 62/7/2 61/7/2 63/7/2
f 68/10/3 65/10/3 64/10/3
f 68/8/3 66/8/3 65/8/3
f 69/8/3 66/8/3 68/8/3
f 70/10/3 68/10/3 64/10/3
f 71/9/3 69/9/3 68/9/3
f 71/10/3 68/10/3 70/10/3
f 72/8/3 66/8/3 69/8/3
f 72/9/3 69/9/3 71/9/3
f 73/9/3 71/9/3 70/9/3
f 73/10/3 70/10/3 64/10/3
f 74/8/3 72/8/3 71/8/3
f 74/9/3 71/9/3 73/9/3
f 75/10/3 73/10/3 64/10/3
f 75/8/3 74/8/3 73/8/3
f 76/8/3 72/8/3 74/8/3
f 76/8/3 74/8/3 75/8/3
f 77/10/3 75/10/3 64/10/3
f 78/9/3 76/9/3 75/9/3
f 78/10/3 75/10/3 77/10/3
f 79/8/3 72/8/3 76/8/3
f 79/9/3 76/9/3 78/9/3
f 80/8/3 66/8/3 72/8/3
f 80/8/3 72/8/3 79/8/3
f 81/9/3 79/9/3 78/9/3
f 81/9/3 78/9/3 77/9/3
f 81/9/3 80/9/3 79/9/3
f 81/10/3 77/10/3 64/10/3
f 82/9/3 80/9/3 81/9/3
f 83/9/3 80/9/3 82/9/3
f 84/8/3 66/8/3 80/8/3
f 84/9/3 80/9/3 83/9/3
f 85/10/3 81/10/3 64/10/3
f 85/10/3 82/10/3 81/10/3
f 86/9/3 83/9/3 82/9/3
f 86/10/3 82/10/3 85/10/3
f 87/8/3 84/8/3 83/8/3
f 87/9/3 83/9/3 86/9/3
f 88/10/3 85/10/3 64/10/3
f 89/9/3 86/9/3 85/9/3
f 89/10/3 85/10/3 88/10/3
f 90/8/3 87/8/3 86/8/3
f 90/9/3 86/9/3 89/9/3
f 91/8/3 84/8/3 87/8/3
f 91/8/3 87/8/3 90/8/3
f 92/9/3 90/9/3 89/9/3
f 92/10/3 88/10/3 64/10/3
f 92/9/3 91/9/3 90/9/3
f 92/9/3 89/9/3 88/9/3
f 93/9/3 91/9/3 92/9/3
f 94/9/3 91/9/3 93/9/3
f 95/8/3 84/8/3 91/8/3
f 95/9/3 91/9/3 94/9/3
f 96/10/3 92/10/3 64/10/3
f 96/10/3 93/10/3 92/10/3
f 97/9/3 94/9/3 93/9/3
f 97/10/3 93/10/3 96/10/3
f 98/8/3 95/8/3 94/8/3
f 98/9/3 94/9/3 97/9/3
f 99/7/3 67/7/3 66/7/3
f 99/8/3 95/8/3 98/8/3
f 99/8/3 66/8/3 84/8/3
f 99/8/3 84/8/3 95/8/3
f 100/7/3 67/7/3 99/7/3
f 101/10/4 102/10/4 106/10/4
f 102/9/4 103/9/4 107/9/4
f 106/10/4 102/10/4 107/10/4
f 107/9/4 103/9/4 108/9/4
f 103/8/4 104/8/4 109/8/4
f 108/9/4 103/9/4 109/9/4
f 101/10/4 106/10/4 110/10/4
f 107/9/4 108/9/4 110/9/4
f 106/9/4 107/9/4 110/9/4
f 110/9/4 108/9/4 111/9/4
f 108/8/4 109/8/4 112/8/4
f 111/9/4 108/9/4 112/9/4
f 109/8/4 104/8/4 113/8/4
f 112/8/4 109/8/4 113/8/4
f 110/10/4 111/10/4 114/10/4
f 101/10/4 110/10/4 114/10/4
f 111/9/4 112/9/4 115/9/4
f 114/10/4 111/10/4 115/10/4
f 112/9/4 113/9/4 115/9/4
f 115/9/4 113/9/4 116/9/4
f 113/8/4 104/8/4 117/8/4
f 116/9/4 113/9/4 117/9/4
f 101/10/4 114/10/4 118/10/4
f 115/9/4 116/9/4 118/9/4
f 114/9/4 115/9/4 118/9/4
f 118/9/4 116/9/4 119/9/4
f 116/8/4 117/8/4 120/8/4
f 119/9/4 116/9/4 120/9/4
f 117/8/4 104/8/4 121/8/4
f 120/8/4 117/8/4 121/8/4
f 119/9/4 120/9/4 122/9/4
f 118/10/4 119/10/4 122/10/4
f 120/9/4 121/9/4 122/9/4
f 122/9/4 121/9/4 123/9/4
f 123/9/4 121/9/4 124/9/4
f 121/8/4 104/8/4 125/8/4
f 124/9/4 121/9/4 125/9/4
f 118/10/4 122/10/4 126/10/4
f 122/10/4 123/10/4 126/10/4
f 123/9/4 124/9/4 127/9/4
f 126/10/4 123/10/4 127/10/4
f 124/8/4 125/8/4 128/8/4
f 127/9/4 124/9/4 128/9/4
f 125/8/4 104/8/4 129/8/4
f 128/8/4 125/8/4 129/8/4
f 118/10/4 126/10/4 130/10/4
f 127/9/4 128/9/4 130/9/4
f 128/9/4 129/9/4 130/9/4
f 126/9/4 127/9/4 130/9/4
f 130/9/4 129/9/4 131/9/4
f 118/10/4 130/10/4 132/10/4
f 130/10/4 131/10/4 132/10/4
f 131/9/4 129/9/4 133/9/4
f 132/10/4 131/10/4 133/10/4
f 133/9/4 129/9/4 134/9/4
f 129/8/4 104/8/4 135/8/4
f 134/9/4 129/9/4 135/9/4
f 101/10/4 118/10/4 136/10/4
f 118/10/4 132/10/4 136/10/4
f 133/9/4 134/9/4 137/9/4
f 136/10/4 132/10/4 137/10/4
f 132/9/4 133/9/4 137/9/4
f 134/8/4 135/8/4 138/8/4
f 137/9/4 134/9/4 138/9/4
f 104/7/4 105/7/4 139/7/4
f 138/8/4 135/8/4 139/8/4
f 135/8/4 104/8/4 139/8/4
f 139/7/4 105/7/4 140/7/4
f 143/10/5 142/10/5 141/10/5
f 144/10/5 142/10/5 143/10/5
f 145/10/5 143/10/5 141/10/5
f 145/2/5 144/2/5 143/2/5
f 146/10/5 142/10/5 144/10/5
f 146/2/5 144/2/5 145/2/5
f 147/10/5 145/10/5 141/10/5
f 147/10/5 146/10/5 145/10/5
f 148/10/5 142/10/5 146/10/5
f 148/10/5 146/10/5 147/10/5
f 149/7/6 150/7/6 151/7/6
f 151/7/6 150/7/6 152/7/6
