# MagicaVoxel @ ephtracy

# material
mtllib UnderGroundDirt.mtl
usemtl palette

# normals
vn -1 0 0
vn 1 0 0
vn 0 0 1
vn 0 0 -1
vn 0 -1 0
vn 0 1 0

# texcoords
vt 0.986328 0.5
vt 0.990234 0.5
vt 0.994141 0.5

# verts
v -4.5 0 4.5
v -4.5 0 -4.5
v -4.5 1 3.5
v -4.5 1 1.5
v -4.5 2 3.5
v -4.5 2 1.5
v -4.5 2 -0.5
v -4.5 2 -1.5
v -4.5 2 -2.5
v -4.5 3 2.5
v -4.5 3 1.5
v -4.5 3 0.5
v -4.5 3 -0.5
v -4.5 3 -1.5
v -4.5 3 -2.5
v -4.5 3 -3.5
v -4.5 3 -4.5
v -4.5 4 2.5
v -4.5 4 1.5
v -4.5 4 0.5
v -4.5 4 -1.5
v -4.5 4 -2.5
v -4.5 4 -3.5
v -4.5 4 -4.5
v -4.5 5 4.5
v -4.5 5 2.5
v -4.5 5 1.5
v -4.5 5 0.5
v -4.5 5 -0.5
v -4.5 5 -1.5
v -4.5 5 -2.5
v -4.5 6 4.5
v -4.5 6 1.5
v -4.5 6 -0.5
v -4.5 6 -1.5
v -4.5 6 -2.5
v -4.5 6 -3.5
v -4.5 7 1.5
v -4.5 7 0.5
v -4.5 7 -1.5
v -4.5 7 -2.5
v -4.5 9 4.5
v -4.5 9 -4.5
v 4.5 0 4.5
v 4.5 0 -1.5
v 4.5 0 -3.5
v 4.5 0 -4.5
v 4.5 1 3.5
v 4.5 1 -1.5
v 4.5 1 -3.5
v 4.5 2 3.5
v 4.5 2 -1.5
v 4.5 2 -3.5
v 4.5 2 -4.5
v 4.5 3 3.5
v 4.5 3 2.5
v 4.5 3 1.5
v 4.5 3 -1.5
v 4.5 3 -3.5
v 4.5 3 -4.5
v 4.5 4 3.5
v 4.5 4 2.5
v 4.5 4 1.5
v 4.5 4 0.5
v 4.5 4 -0.5
v 4.5 4 -1.5
v 4.5 4 -2.5
v 4.5 5 3.5
v 4.5 5 2.5
v 4.5 5 1.5
v 4.5 5 0.5
v 4.5 5 -0.5
v 4.5 5 -2.5
v 4.5 5 -3.5
v 4.5 6 2.5
v 4.5 6 1.5
v 4.5 6 -0.5
v 4.5 6 -2.5
v 4.5 6 -3.5
v 4.5 7 -2.5
v 4.5 7 -3.5
v 4.5 8 -2.5
v 4.5 8 -3.5
v 4.5 9 4.5
v 4.5 9 -4.5
v -4.5 0 4.5
v -4.5 5 4.5
v -4.5 6 4.5
v -4.5 9 4.5
v -3.5 0 4.5
v -3.5 2 4.5
v -3.5 3 4.5
v -3.5 4 4.5
v -3.5 5 4.5
v -3.5 6 4.5
v -3.5 7 4.5
v -2.5 3 4.5
v -2.5 4 4.5
v -2.5 5 4.5
v -2.5 6 4.5
v -2.5 7 4.5
v -1.5 2 4.5
v -1.5 4 4.5
v -1.5 5 4.5
v -1.5 6 4.5
v -0.5 0 4.5
v -0.5 1 4.5
v -0.5 3 4.5
v -0.5 5 4.5
v -0.5 6 4.5
v -0.5 7 4.5
v 0.5 1 4.5
v 0.5 2 4.5
v 0.5 6 4.5
v 0.5 7 4.5
v 1.5 2 4.5
v 1.5 3 4.5
v 1.5 4 4.5
v 1.5 5 4.5
v 2.5 0 4.5
v 2.5 2 4.5
v 2.5 3 4.5
v 2.5 4 4.5
v 2.5 5 4.5
v 3.5 0 4.5
v 3.5 2 4.5
v 3.5 3 4.5
v 3.5 4 4.5
v 3.5 5 4.5
v 4.5 0 4.5
v 4.5 9 4.5
v -4.5 0 -4.5
v -4.5 3 -4.5
v -4.5 4 -4.5
v -4.5 9 -4.5
v -3.5 2 -4.5
v -3.5 3 -4.5
v -3.5 4 -4.5
v -3.5 6 -4.5
v -3.5 7 -4.5
v -2.5 1 -4.5
v -2.5 2 -4.5
v -2.5 3 -4.5
v -2.5 4 -4.5
v -2.5 5 -4.5
v -2.5 6 -4.5
v -2.5 7 -4.5
v -1.5 1 -4.5
v -1.5 3 -4.5
v -1.5 6 -4.5
v -1.5 7 -4.5
v -0.5 3 -4.5
v -0.5 4 -4.5
v -0.5 5 -4.5
v -0.5 6 -4.5
v 0.5 0 -4.5
v 0.5 1 -4.5
v 0.5 3 -4.5
v 0.5 4 -4.5
v 0.5 6 -4.5
v 0.5 7 -4.5
v 1.5 2 -4.5
v 1.5 3 -4.5
v 1.5 4 -4.5
v 1.5 5 -4.5
v 1.5 6 -4.5
v 2.5 1 -4.5
v 2.5 2 -4.5
v 2.5 3 -4.5
v 2.5 5 -4.5
v 2.5 6 -4.5
v 3.5 0 -4.5
v 3.5 2 -4.5
v 3.5 3 -4.5
v 3.5 5 -4.5
v 4.5 0 -4.5
v 4.5 2 -4.5
v 4.5 3 -4.5
v 4.5 9 -4.5
v -4.5 0 4.5
v -3.5 0 4.5
v -0.5 0 4.5
v 2.5 0 4.5
v 3.5 0 4.5
v 4.5 0 4.5
v -3.5 0 3.5
v -0.5 0 3.5
v 2.5 0 3.5
v 3.5 0 3.5
v 3.5 0 -1.5
v 4.5 0 -1.5
v 0.5 0 -3.5
v 3.5 0 -3.5
v 4.5 0 -3.5
v -4.5 0 -4.5
v 0.5 0 -4.5
v 3.5 0 -4.5
v 4.5 0 -4.5
v -4.5 9 4.5
v 4.5 9 4.5
v -4.5 9 -4.5
v 4.5 9 -4.5

# faces
f 3/1/1 2/1/1 1/1/1
f 4/1/1 2/1/1 3/1/1
f 5/1/1 3/1/1 1/1/1
f 5/3/1 4/3/1 3/3/1
f 6/1/1 2/1/1 4/1/1
f 6/3/1 4/3/1 5/3/1
f 7/1/1 2/1/1 6/1/1
f 8/1/1 2/1/1 7/1/1
f 9/1/1 2/1/1 8/1/1
f 10/1/1 6/1/1 5/1/1
f 11/3/1 7/3/1 6/3/1
f 11/1/1 6/1/1 10/1/1
f 12/3/1 7/3/1 11/3/1
f 13/1/1 8/1/1 7/1/1
f 13/3/1 7/3/1 12/3/1
f 14/2/1 9/2/1 8/2/1
f 14/1/1 8/1/1 13/1/1
f 15/1/1 2/1/1 9/1/1
f 15/2/1 9/2/1 14/2/1
f 16/1/1 2/1/1 15/1/1
f 17/1/1 2/1/1 16/1/1
f 18/1/1 10/1/1 5/1/1
f 18/3/1 11/3/1 10/3/1
f 19/2/1 12/2/1 11/2/1
f 19/3/1 11/3/1 18/3/1
f 20/3/1 14/3/1 13/3/1
f 20/2/1 12/2/1 19/2/1
f 20/3/1 13/3/1 12/3/1
f 21/1/1 16/1/1 15/1/1
f 21/3/1 14/3/1 20/3/1
f 21/1/1 15/1/1 14/1/1
f 22/1/1 16/1/1 21/1/1
f 23/3/1 17/3/1 16/3/1
f 23/1/1 16/1/1 22/1/1
f 24/3/1 17/3/1 23/3/1
f 25/1/1 5/1/1 1/1/1
f 25/1/1 18/1/1 5/1/1
f 26/2/1 19/2/1 18/2/1
f 26/1/1 18/1/1 25/1/1
f 27/1/1 20/1/1 19/1/1
f 27/2/1 19/2/1 26/2/1
f 27/1/1 21/1/1 20/1/1
f 28/1/1 21/1/1 27/1/1
f 29/1/1 21/1/1 28/1/1
f 30/3/1 22/3/1 21/3/1
f 30/1/1 21/1/1 29/1/1
f 31/2/1 23/2/1 22/2/1
f 31/3/1 22/3/1 30/3/1
f 32/3/1 26/3/1 25/3/1
f 32/3/1 27/3/1 26/3/1
f 32/3/1 28/3/1 27/3/1
f 33/3/1 28/3/1 32/3/1
f 34/1/1 29/1/1 28/1/1
f 34/3/1 30/3/1 29/3/1
f 35/2/1 31/2/1 30/2/1
f 35/3/1 30/3/1 34/3/1
f 36/2/1 23/2/1 31/2/1
f 36/2/1 31/2/1 35/2/1
f 37/1/1 24/1/1 23/1/1
f 37/2/1 23/2/1 36/2/1
f 38/3/1 28/3/1 33/3/1
f 38/1/1 33/1/1 32/1/1
f 39/1/1 35/1/1 34/1/1
f 39/3/1 28/3/1 38/3/1
f 39/1/1 34/1/1 28/1/1
f 40/2/1 36/2/1 35/2/1
f 40/1/1 35/1/1 39/1/1
f 41/1/1 37/1/1 36/1/1
f 41/2/1 36/2/1 40/2/1
f 42/1/1 39/1/1 38/1/1
f 42/1/1 38/1/1 32/1/1
f 42/1/1 41/1/1 40/1/1
f 42/1/1 40/1/1 39/1/1
f 43/1/1 37/1/1 41/1/1
f 43/1/1 41/1/1 42/1/1
f 43/1/1 24/1/1 37/1/1
f 44/1/2 45/1/2 48/1/2
f 45/3/2 46/3/2 49/3/2
f 48/1/2 45/1/2 49/1/2
f 46/1/2 47/1/2 50/1/2
f 49/3/2 46/3/2 50/3/2
f 48/3/2 49/3/2 51/3/2
f 44/1/2 48/1/2 51/1/2
f 49/1/2 50/1/2 52/1/2
f 51/3/2 49/3/2 52/3/2
f 50/1/2 47/1/2 53/1/2
f 52/1/2 50/1/2 53/1/2
f 53/1/2 47/1/2 54/1/2
f 51/1/2 52/1/2 55/1/2
f 44/1/2 51/1/2 55/1/2
f 52/1/2 53/1/2 55/1/2
f 55/1/2 53/1/2 56/1/2
f 56/1/2 53/1/2 57/1/2
f 57/1/2 53/1/2 58/1/2
f 53/3/2 54/3/2 59/3/2
f 58/1/2 53/1/2 59/1/2
f 59/3/2 54/3/2 60/3/2
f 44/1/2 55/1/2 61/1/2
f 55/2/2 56/2/2 61/2/2
f 56/3/2 57/3/2 62/3/2
f 61/2/2 56/2/2 62/2/2
f 57/1/2 58/1/2 63/1/2
f 62/3/2 57/3/2 63/3/2
f 63/1/2 58/1/2 64/1/2
f 64/1/2 58/1/2 65/1/2
f 58/3/2 59/3/2 66/3/2
f 65/1/2 58/1/2 66/1/2
f 66/3/2 59/3/2 67/3/2
f 61/3/2 62/3/2 68/3/2
f 44/1/2 61/1/2 68/1/2
f 62/2/2 63/2/2 69/2/2
f 68/3/2 62/3/2 69/3/2
f 63/2/2 64/2/2 69/2/2
f 69/2/2 64/2/2 70/2/2
f 64/3/2 65/3/2 71/3/2
f 70/2/2 64/2/2 71/2/2
f 66/1/2 67/1/2 72/1/2
f 71/3/2 65/3/2 72/3/2
f 65/1/2 66/1/2 72/1/2
f 67/3/2 59/3/2 73/3/2
f 72/1/2 67/1/2 73/1/2
f 59/1/2 60/1/2 74/1/2
f 73/3/2 59/3/2 74/3/2
f 69/3/2 70/3/2 75/3/2
f 68/1/2 69/1/2 75/1/2
f 71/2/2 72/2/2 76/2/2
f 75/3/2 70/3/2 76/3/2
f 70/2/2 71/2/2 76/2/2
f 72/1/2 73/1/2 77/1/2
f 76/2/2 72/2/2 77/2/2
f 73/1/2 74/1/2 77/1/2
f 77/1/2 74/1/2 78/1/2
f 74/1/2 60/1/2 79/1/2
f 78/1/2 74/1/2 79/1/2
f 75/1/2 76/1/2 80/1/2
f 77/1/2 78/1/2 80/1/2
f 78/3/2 79/3/2 80/3/2
f 76/1/2 77/1/2 80/1/2
f 79/1/2 60/1/2 81/1/2
f 80/3/2 79/3/2 81/3/2
f 75/1/2 80/1/2 82/1/2
f 80/2/2 81/2/2 82/2/2
f 81/1/2 60/1/2 83/1/2
f 82/2/2 81/2/2 83/2/2
f 68/1/2 75/1/2 84/1/2
f 75/1/2 82/1/2 84/1/2
f 82/1/2 83/1/2 84/1/2
f 44/1/2 68/1/2 84/1/2
f 83/1/2 60/1/2 85/1/2
f 84/1/2 83/1/2 85/1/2
f 90/1/3 87/1/3 86/1/3
f 91/1/3 87/1/3 90/1/3
f 92/1/3 87/1/3 91/1/3
f 93/1/3 87/1/3 92/1/3
f 94/3/3 88/3/3 87/3/3
f 94/1/3 87/1/3 93/1/3
f 95/1/3 89/1/3 88/1/3
f 95/3/3 88/3/3 94/3/3
f 96/1/3 89/1/3 95/1/3
f 97/3/3 93/3/3 92/3/3
f 97/1/3 92/1/3 91/1/3
f 98/2/3 94/2/3 93/2/3
f 98/3/3 93/3/3 97/3/3
f 98/2/3 95/2/3 94/2/3
f 99/2/3 95/2/3 98/2/3
f 100/3/3 96/3/3 95/3/3
f 100/2/3 95/2/3 99/2/3
f 101/1/3 89/1/3 96/1/3
f 101/3/3 96/3/3 100/3/3
f 102/1/3 97/1/3 91/1/3
f 102/3/3 91/3/3 90/3/3
f 102/1/3 98/1/3 97/1/3
f 103/2/3 99/2/3 98/2/3
f 103/1/3 98/1/3 102/1/3
f 104/3/3 100/3/3 99/3/3
f 104/2/3 99/2/3 103/2/3
f 105/2/3 101/2/3 100/2/3
f 105/3/3 100/3/3 104/3/3
f 106/3/3 103/3/3 102/3/3
f 106/3/3 104/3/3 103/3/3
f 106/3/3 102/3/3 90/3/3
f 107/3/3 104/3/3 106/3/3
f 108/3/3 104/3/3 107/3/3
f 109/2/3 105/2/3 104/2/3
f 109/3/3 104/3/3 108/3/3
f 110/2/3 101/2/3 105/2/3
f 110/2/3 105/2/3 109/2/3
f 111/1/3 89/1/3 101/1/3
f 111/2/3 101/2/3 110/2/3
f 112/3/3 108/3/3 107/3/3
f 112/1/3 107/1/3 106/1/3
f 113/3/3 108/3/3 112/3/3
f 114/1/3 110/1/3 109/1/3
f 114/1/3 109/1/3 108/1/3
f 114/3/3 111/3/3 110/3/3
f 115/1/3 89/1/3 111/1/3
f 115/3/3 111/3/3 114/3/3
f 116/3/3 108/3/3 113/3/3
f 116/1/3 113/1/3 112/1/3
f 117/1/3 115/1/3 114/1/3
f 117/3/3 108/3/3 116/3/3
f 117/1/3 114/1/3 108/1/3
f 118/1/3 115/1/3 117/1/3
f 119/1/3 115/1/3 118/1/3
f 120/1/3 116/1/3 112/1/3
f 120/1/3 112/1/3 106/1/3
f 120/1/3 117/1/3 116/1/3
f 121/1/3 117/1/3 120/1/3
f 122/2/3 118/2/3 117/2/3
f 122/1/3 117/1/3 121/1/3
f 123/3/3 119/3/3 118/3/3
f 123/2/3 118/2/3 122/2/3
f 124/1/3 115/1/3 119/1/3
f 124/3/3 119/3/3 123/3/3
f 125/3/3 121/3/3 120/3/3
f 126/1/3 122/1/3 121/1/3
f 126/3/3 121/3/3 125/3/3
f 127/3/3 123/3/3 122/3/3
f 127/1/3 122/1/3 126/1/3
f 128/2/3 124/2/3 123/2/3
f 128/3/3 123/3/3 127/3/3
f 129/1/3 115/1/3 124/1/3
f 129/2/3 124/2/3 128/2/3
f 130/1/3 126/1/3 125/1/3
f 130/1/3 128/1/3 127/1/3
f 130/1/3 129/1/3 128/1/3
f 130/1/3 127/1/3 126/1/3
f 131/1/3 89/1/3 115/1/3
f 131/1/3 129/1/3 130/1/3
f 131/1/3 115/1/3 129/1/3
f 132/1/4 133/1/4 136/1/4
f 133/3/4 134/3/4 137/3/4
f 136/1/4 133/1/4 137/1/4
f 134/1/4 135/1/4 138/1/4
f 137/3/4 134/3/4 138/3/4
f 138/1/4 135/1/4 139/1/4
f 139/1/4 135/1/4 140/1/4
f 132/1/4 136/1/4 141/1/4
f 136/3/4 137/3/4 142/3/4
f 141/1/4 136/1/4 142/1/4
f 137/1/4 138/1/4 143/1/4
f 142/3/4 137/3/4 143/3/4
f 138/1/4 139/1/4 143/1/4
f 143/1/4 139/1/4 144/1/4
f 144/1/4 139/1/4 145/1/4
f 139/2/4 140/2/4 146/2/4
f 145/1/4 139/1/4 146/1/4
f 140/1/4 135/1/4 147/1/4
f 146/2/4 140/2/4 147/2/4
f 132/1/4 141/1/4 148/1/4
f 141/3/4 142/3/4 148/3/4
f 142/3/4 143/3/4 148/3/4
f 143/3/4 144/3/4 148/3/4
f 148/3/4 144/3/4 149/3/4
f 145/3/4 146/3/4 150/3/4
f 146/1/4 147/1/4 150/1/4
f 147/1/4 135/1/4 151/1/4
f 150/1/4 147/1/4 151/1/4
f 149/3/4 144/3/4 152/3/4
f 148/1/4 149/1/4 152/1/4
f 144/1/4 145/1/4 153/1/4
f 152/3/4 144/3/4 153/3/4
f 145/3/4 150/3/4 154/3/4
f 153/1/4 145/1/4 154/1/4
f 150/3/4 151/3/4 154/3/4
f 154/3/4 151/3/4 155/3/4
f 152/1/4 153/1/4 156/1/4
f 132/1/4 148/1/4 156/1/4
f 154/1/4 155/1/4 156/1/4
f 153/1/4 154/1/4 156/1/4
f 148/1/4 152/1/4 156/1/4
f 156/1/4 155/1/4 157/1/4
f 157/1/4 155/1/4 158/1/4
f 158/1/4 155/1/4 159/1/4
f 155/3/4 151/3/4 160/3/4
f 159/1/4 155/1/4 160/1/4
f 151/1/4 135/1/4 161/1/4
f 160/3/4 151/3/4 161/3/4
f 157/1/4 158/1/4 162/1/4
f 158/3/4 159/3/4 163/3/4
f 162/1/4 158/1/4 163/1/4
f 159/2/4 160/2/4 164/2/4
f 163/3/4 159/3/4 164/3/4
f 164/2/4 160/2/4 165/2/4
f 160/1/4 161/1/4 166/1/4
f 165/2/4 160/2/4 166/2/4
f 157/1/4 162/1/4 167/1/4
f 156/3/4 157/3/4 167/3/4
f 162/3/4 163/3/4 168/3/4
f 167/1/4 162/1/4 168/1/4
f 164/2/4 165/2/4 169/2/4
f 168/3/4 163/3/4 169/3/4
f 163/2/4 164/2/4 169/2/4
f 165/3/4 166/3/4 170/3/4
f 169/2/4 165/2/4 170/2/4
f 166/1/4 161/1/4 171/1/4
f 170/3/4 166/3/4 171/3/4
f 169/3/4 170/3/4 172/3/4
f 156/3/4 167/3/4 172/3/4
f 168/3/4 169/3/4 172/3/4
f 167/3/4 168/3/4 172/3/4
f 172/3/4 170/3/4 173/3/4
f 173/3/4 170/3/4 174/3/4
f 170/1/4 171/1/4 175/1/4
f 174/3/4 170/3/4 175/3/4
f 172/1/4 173/1/4 176/1/4
f 173/3/4 174/3/4 177/3/4
f 176/1/4 173/1/4 177/1/4
f 174/1/4 175/1/4 178/1/4
f 177/3/4 174/3/4 178/3/4
f 171/1/4 161/1/4 179/1/4
f 178/1/4 175/1/4 179/1/4
f 161/1/4 135/1/4 179/1/4
f 175/1/4 171/1/4 179/1/4
f 186/1/5 181/1/5 180/1/5
f 186/3/5 182/3/5 181/3/5
f 187/1/5 183/1/5 182/1/5
f 187/3/5 182/3/5 186/3/5
f 188/3/5 184/3/5 183/3/5
f 188/1/5 183/1/5 187/1/5
f 189/1/5 185/1/5 184/1/5
f 189/3/5 184/3/5 188/3/5
f 190/1/5 188/1/5 187/1/5
f 190/1/5 185/1/5 189/1/5
f 190/1/5 189/1/5 188/1/5
f 190/1/5 187/1/5 186/1/5
f 191/1/5 185/1/5 190/1/5
f 192/1/5 190/1/5 186/1/5
f 193/3/5 191/3/5 190/3/5
f 193/1/5 190/1/5 192/1/5
f 194/3/5 191/3/5 193/3/5
f 195/1/5 186/1/5 180/1/5
f 195/1/5 192/1/5 186/1/5
f 196/3/5 193/3/5 192/3/5
f 196/1/5 192/1/5 195/1/5
f 197/1/5 194/1/5 193/1/5
f 197/3/5 193/3/5 196/3/5
f 198/1/5 194/1/5 197/1/5
f 199/1/6 200/1/6 201/1/6
f 201/1/6 200/1/6 202/1/6
