# 3ds Max Wavefront OBJ Exporter v0.97b - (c)2007 guruware
# File Created: 06.07.2015 21:35:31

#
# object m_demoSet_Roof_Top
#

v  -5.0000 10.0000 -5.0000
v  5.0000 10.0000 -5.0000
v  5.0000 9.5000 -5.0000
v  -5.0000 9.5000 -5.0000
v  5.0000 9.5000 5.0000
v  5.0000 10.0000 5.0000
v  -5.0000 10.0000 5.0000
v  -5.0000 9.5000 5.0000
v  -5.0000 5.5000 -5.0000
v  -5.0000 5.5000 5.0000
v  5.0000 5.5000 -5.0000
v  5.0000 5.5000 5.0000
# 12 vertices

vn 0.0000 0.0000 -1.0000
vn 0.0000 0.0000 1.0000
vn 0.0000 1.0000 -0.0000
vn 1.0000 0.0000 -0.0000
vn -1.0000 0.0000 -0.0000
vn 0.0000 -1.0000 -0.0000
# 6 vertex normals

vt 0.1750 0.0507 0.0000
vt 0.1750 0.4564 0.0000
vt 0.1582 0.4564 0.0000
vt 0.1582 0.0507 0.0000
vt 0.2263 0.4948 0.0000
vt 0.2263 0.3704 0.0000
vt 0.3507 0.3704 0.0000
vt 0.3507 0.4948 0.0000
vt 0.5000 0.3550 0.0000
vt 1.0000 0.3550 0.0000
vt 1.0000 0.5000 0.0000
vt 0.5000 0.5000 0.0000
vt 0.5000 0.2010 0.0000
vt 1.0000 0.2010 0.0000
vt 0.7514 0.4560 0.0000
# 15 texture coords

g m_demoSet_Roof_Top
s 2
f 1/1/1 2/2/1 3/3/1 4/4/1 
f 5/4/2 6/1/2 7/2/2 8/3/2 
s 1
f 1/5/3 7/6/3 6/7/3 2/8/3 
s 4
f 2/1/4 6/2/4 5/3/4 3/4/4 
f 9/9/5 10/10/5 8/11/5 4/12/5 
s off
f 11/13/6 10/14/6 9/15/6 
s 2
f 4/11/1 3/12/1 11/9/1 9/10/1 
f 5/11/2 8/12/2 10/9/2 12/10/2 
s 4
f 3/11/4 5/12/4 12/9/4 11/10/4 
f 4/3/5 8/4/5 7/1/5 1/2/5 
s off
f 11/14/6 12/15/6 10/13/6 
# 9 polygons - 2 triangles

