# 3ds Max Wavefront OBJ Exporter v0.97b - (c)2007 guruware
# File Created: 07.07.2015 00:53:55

#
# object m_demoSet_FenceCapTop
#

v  0.7099 0.0000 2.0000
v  0.7099 6.2500 2.0000
v  -5.0000 6.2500 2.0000
v  -5.0000 0.0000 2.0000
v  -5.0000 6.2500 -2.0000
v  -5.0000 0.0000 -2.0000
v  2.0000 6.2500 1.7237
v  2.0000 0.0000 1.7237
v  2.0000 0.0000 -1.7237
v  2.0000 6.2500 -1.7237
v  1.7237 0.0000 2.0000
v  1.7237 6.2500 2.0000
v  2.2500 6.2500 2.2500
v  -2.2500 6.2500 -2.2500
v  2.2500 6.2500 -2.2506
v  2.5000 6.5000 -2.2500
v  2.5000 7.7500 -2.2500
v  2.5000 7.7500 2.2500
v  2.5000 6.5000 2.2500
v  -5.0000 4.5000 -2.2500
v  -5.0000 6.2500 -2.2500
v  -5.0000 6.0000 -2.5000
v  -5.0000 4.7500 -2.5000
v  -2.2500 6.2500 2.2503
v  2.2500 7.7500 2.5000
v  -2.2500 7.7500 2.5000
v  -2.2500 6.5000 2.5000
v  2.2500 6.5000 2.5000
v  2.2500 8.0000 2.2500
v  -2.2500 8.0000 -2.2500
v  -2.2500 8.0000 2.2500
v  2.2500 8.0000 -2.2500
v  -5.0000 6.0000 2.5000
v  -2.2500 6.0000 2.5002
v  -2.2500 6.2500 2.2502
v  -5.0000 6.2500 2.2500
v  -5.0000 4.7500 2.5000
v  -2.2500 4.7500 2.5002
v  -2.2500 6.2500 -2.2498
v  -2.2500 4.5000 2.2502
v  -5.0000 4.5000 2.2500
v  -2.2500 4.5000 -2.2502
v  0.2500 9.9012 0.0000
v  2.0000 9.0000 1.7763
v  2.0000 9.0000 -1.7500
v  -0.0000 9.9012 -0.2500
v  1.7500 9.0000 -2.0000
v  -1.7500 9.0000 -2.0000
v  -0.2500 9.9012 0.0000
v  -2.0000 9.0000 -1.7500
v  -2.0000 9.0000 1.7500
v  0.0000 9.9012 0.2500
v  -1.7500 9.0000 2.0000
v  1.7763 9.0000 2.0000
v  2.0000 8.0000 1.7763
v  2.0000 8.0000 -1.7500
v  1.7500 8.0000 -2.0000
v  -1.7500 8.0000 -2.0000
v  -2.0000 8.0000 -1.7500
v  -2.0000 8.0000 1.7500
v  -1.7500 8.0000 2.0000
v  1.7763 8.0000 2.0000
v  2.2500 7.7500 -2.5000
v  2.2500 6.5000 -2.5000
v  -2.2500 6.5000 -2.5000
v  -2.2500 7.7500 -2.5000
v  -2.2500 6.0000 -2.4998
v  -2.2500 4.7500 -2.4998
v  0.7099 0.0000 -2.0000
v  0.7099 6.2500 -2.0000
v  1.7237 0.0000 -2.0000
v  1.7237 6.2500 -2.0000
v  -2.5000 6.5000 2.2500
v  -2.5000 7.7500 2.2500
v  -2.5000 7.7500 -2.2500
v  -2.5000 6.5000 -2.2500
v  -2.0000 4.7500 -2.2497
v  -2.0000 6.0000 -2.2497
v  -2.0000 6.0000 2.2503
v  -2.0000 4.7500 2.2503
# 80 vertices

vn 0.0000 0.0000 1.0000
vn -1.0000 0.0000 0.0000
vn 0.9239 0.0000 0.3827
vn 0.9239 0.0000 -0.3827
vn 0.3827 0.0000 0.9239
vn 0.3416 -0.8756 0.3416
vn -0.3416 -0.8756 -0.3416
vn 0.3417 -0.8753 -0.3422
vn 0.8757 -0.3414 -0.3415
vn 0.8756 0.3416 -0.3416
vn 0.8756 0.3416 0.3416
vn 0.8756 -0.3416 0.3416
vn -1.0000 0.0000 -0.0000
vn -0.3416 -0.8754 0.3419
vn 0.3416 0.3416 0.8756
vn -0.3416 0.3416 0.8756
vn -0.3416 -0.3413 0.8757
vn 0.3416 -0.3416 0.8756
vn 0.3416 0.8756 0.3416
vn -0.3416 0.8756 -0.3416
vn -0.3416 0.8756 0.3416
vn 0.3416 0.8756 -0.3416
vn -0.0001 0.3827 0.9239
vn 0.3414 0.3416 0.8756
vn 0.3415 0.8756 0.3416
vn -0.0000 0.9239 0.3827
vn -0.0001 -0.3827 0.9239
vn 0.3414 -0.3416 0.8756
vn 0.0000 0.9239 -0.3827
vn -0.0000 -0.9239 0.3827
vn -0.0000 -0.9239 -0.3827
vn 0.3417 -0.8754 -0.3419
vn 0.2379 0.9713 -0.0007
vn 0.7892 0.5105 0.3414
vn 0.7896 0.5099 -0.3414
vn -0.0000 0.9712 -0.2381
vn 0.3414 0.5099 -0.7896
vn -0.3414 0.5099 -0.7896
vn -0.2381 0.9712 0.0000
vn -0.7896 0.5099 -0.3414
vn -0.7896 0.5099 0.3414
vn -0.0007 0.9713 0.2379
vn -0.3414 0.5099 0.7896
vn 0.3414 0.5105 0.7892
vn 0.3827 0.0000 -0.9239
vn -0.3827 0.0000 -0.9239
vn -0.9239 0.0000 -0.3827
vn -0.9239 0.0000 0.3827
vn -0.3827 0.0000 0.9239
vn 0.3416 0.3416 -0.8756
vn 0.3417 -0.3411 -0.8758
vn -0.3416 -0.3416 -0.8756
vn -0.3416 0.3416 -0.8756
vn 0.0001 0.3827 -0.9239
vn 0.3417 0.3416 -0.8755
vn 0.3418 -0.3413 -0.8756
vn 0.0000 -0.3827 -0.9239
vn -0.0000 0.0000 -1.0000
vn -0.8756 -0.3415 0.3415
vn -0.8756 0.3416 0.3416
vn -0.8756 0.3416 -0.3416
vn -0.8756 -0.3416 -0.3416
vn 0.8757 -0.3415 -0.3414
vn 0.8756 0.3416 -0.3414
vn 0.8755 0.3416 0.3417
vn 0.8755 -0.3416 0.3417
# 66 vertex normals

vt 0.2748 0.5010 0.0000
vt 0.2748 0.8125 0.0000
vt 0.0010 0.8125 0.0000
vt 0.0010 0.5010 0.0000
vt 0.1670 0.8125 0.0000
vt 0.1670 0.5010 0.0000
vt 0.3255 0.8125 0.0000
vt 0.3255 0.5010 0.0000
vt 0.1531 0.5010 0.0000
vt 0.1531 0.8125 0.0000
vt 0.3113 0.5010 0.0000
vt 0.3113 0.8125 0.0000
vt 0.9862 0.9866 0.0000
vt 0.8226 0.8228 0.0000
vt 0.9862 0.8228 0.0000
vt 0.6302 0.8231 0.0000
vt 0.6302 0.8696 0.0000
vt 0.8047 0.8696 0.0000
vt 0.8047 0.8231 0.0000
vt 0.8229 0.7584 0.0000
vt 0.8229 0.8231 0.0000
vt 0.8138 0.8140 0.0000
vt 0.8138 0.7675 0.0000
vt 0.8226 0.9866 0.0000
vt 0.6300 0.8696 0.0000
vt 0.6300 0.8231 0.0000
vt 0.9862 0.9957 0.0000
vt 0.9953 0.9866 0.0000
vt 0.8226 0.9957 0.0000
vt 0.9953 0.7228 0.0000
vt 0.9953 0.8227 0.0000
vt 0.9862 0.8227 0.0000
vt 0.9862 0.7228 0.0000
vt 0.8226 0.8231 0.0000
vt 0.8226 0.8696 0.0000
vt 0.5223 0.8696 0.0000
vt 0.5223 0.8231 0.0000
vt 0.9953 0.8228 0.0000
vt 0.8229 0.7228 0.0000
vt 0.6300 0.8140 0.0000
vt 0.6301 0.8140 0.0000
vt 0.5223 0.8140 0.0000
vt 0.7224 0.9866 0.0000
vt 0.7224 0.8231 0.0000
vt 0.9861 0.7584 0.0000
vt 0.9861 0.8231 0.0000
vt 0.9952 0.7675 0.0000
vt 0.9952 0.8140 0.0000
vt 0.8645 0.9064 0.0000
vt 0.9446 0.8263 0.0000
vt 0.9446 0.9866 0.0000
vt 0.8561 0.9148 0.0000
vt 0.9362 0.9950 0.0000
vt 0.7759 0.9950 0.0000
vt 0.8477 0.9064 0.0000
vt 0.7676 0.9866 0.0000
vt 0.7676 0.8263 0.0000
vt 0.8561 0.8980 0.0000
vt 0.7759 0.8179 0.0000
vt 0.9362 0.8179 0.0000
vt 0.9953 0.8263 0.0000
vt 0.9446 0.8179 0.0000
vt 0.9953 0.8179 0.0000
vt 0.8135 0.9866 0.0000
vt 0.8135 0.8228 0.0000
vt 0.8226 0.8136 0.0000
vt 0.9862 0.8136 0.0000
# 67 texture coords

g m_demoSet_FenceCapTop
s 1
f 1/1/1 2/2/1 3/3/1 4/4/1 
s 8
f 3/3/2 5/5/2 6/6/2 4/4/2 
s 1
f 7/7/3 8/8/3 9/9/4 10/10/4 
f 11/11/5 8/8/3 7/7/3 12/12/5 
f 11/8/5 12/7/5 2/2/1 1/1/1 
s 3
f 13/13/6 14/14/7 15/15/8 
s 1
f 16/16/9 17/17/10 18/18/11 19/19/12 
s 32
f 20/20/2 21/21/2 22/22/13 23/23/13 
s 1
f 13/13/6 24/24/14 14/14/7 
f 25/18/15 26/25/16 27/26/17 28/19/18 
f 29/13/19 30/14/20 31/15/21 
s 3
f 29/13/19 32/24/22 30/14/20 
s 1
f 18/27/11 29/13/19 25/28/15 
f 18/27/11 17/29/10 32/24/22 29/13/19 
f 33/30/23 34/31/24 35/32/25 36/33/26 
f 25/18/15 28/19/18 19/34/12 18/35/11 
f 33/36/23 37/37/27 38/26/28 34/25/24 
f 25/28/15 29/13/19 31/15/21 26/38/16 
f 39/21/22 21/39/29 36/33/26 35/32/25 
f 13/22/6 28/19/18 27/26/17 24/40/14 
f 15/41/8 16/16/9 19/19/12 13/22/6 
f 40/40/6 38/26/28 37/37/27 41/42/30 
f 41/43/30 20/44/31 42/34/32 40/24/6 
f 28/19/18 13/22/6 19/34/12 
s 32
f 41/45/2 36/46/2 21/21/2 20/20/2 
f 41/45/2 37/47/13 33/48/13 36/46/2 
s 1
f 43/49/33 44/50/34 45/51/35 
f 46/52/36 47/53/37 48/54/38 
f 49/55/39 50/56/40 51/57/41 
f 52/58/42 53/59/43 54/60/44 
f 45/51/35 44/50/34 55/61/3 56/28/4 
f 48/51/38 47/50/37 57/61/45 58/28/46 
f 51/51/41 50/50/40 59/61/47 60/28/48 
f 54/51/44 53/50/43 61/61/49 62/28/5 
f 46/52/36 49/55/39 52/58/42 43/49/33 
f 44/50/34 54/62/44 62/63/5 55/61/3 
f 47/50/37 45/62/35 56/63/4 57/61/45 
f 50/50/40 48/62/38 58/63/46 59/61/47 
f 53/50/43 51/62/41 60/63/48 61/61/49 
f 43/49/33 52/58/42 54/60/44 44/50/34 
f 46/52/36 43/49/33 45/51/35 47/53/37 
f 49/55/39 46/52/36 48/54/38 50/56/40 
f 52/58/42 49/55/39 51/57/41 53/59/43 
f 63/18/50 64/19/51 65/26/52 66/25/53 
f 17/29/10 63/64/50 32/24/22 
f 22/30/54 21/33/29 39/32/22 67/31/55 
f 63/18/50 17/35/10 16/34/9 64/19/51 
f 22/36/54 67/25/55 68/26/56 23/37/57 
f 63/64/50 66/65/53 30/14/20 32/24/22 
f 15/22/8 14/40/7 65/26/52 64/19/51 
f 42/40/32 20/42/31 23/37/57 68/26/56 
f 64/19/51 16/34/9 15/22/8 
f 69/1/58 6/4/58 5/3/58 70/2/58 
f 71/11/45 72/12/45 10/7/4 9/8/4 
f 71/8/45 69/1/58 70/2/58 72/7/45 
f 73/16/59 74/17/60 75/18/61 76/19/62 
f 75/66/61 30/14/20 66/65/53 
f 75/66/61 74/67/60 31/15/21 30/14/20 
f 66/18/53 65/19/52 76/34/62 75/35/61 
f 24/41/14 73/16/59 76/19/62 14/22/7 
f 65/19/52 14/22/7 76/34/62 
f 74/67/60 26/38/16 31/15/21 
f 26/18/16 74/35/60 73/34/59 27/19/17 
f 27/19/17 73/34/59 24/22/14 
f 77/16/63 78/17/64 79/18/65 80/19/66 
f 79/27/65 35/13/25 34/28/24 
f 79/27/65 78/29/64 39/24/22 35/13/25 
f 34/18/24 38/19/28 80/34/66 79/35/65 
f 42/41/32 77/16/63 80/19/66 40/22/6 
f 38/19/28 40/22/6 80/34/66 
f 78/29/64 67/64/55 39/24/22 
f 67/18/55 78/35/64 77/34/63 68/19/56 
f 68/19/56 77/34/63 42/22/32 
# 53 polygons - 20 triangles

