# 3ds Max Wavefront OBJ Exporter v0.97b - (c)2007 guruware
# File Created: 07.07.2015 00:53:20

#
# object m_demoSet_FenceCap
#

v  0.7099 0.0000 2.0000
v  0.7099 10.0000 2.0000
v  -5.0000 10.0000 2.0000
v  -5.0000 0.0000 2.0000
v  -5.0000 10.0000 -2.0000
v  -5.0000 0.0000 -2.0000
v  2.0000 10.0000 1.7237
v  2.0000 0.0000 1.7237
v  2.0000 0.0000 -1.7237
v  2.0000 10.0000 -1.7237
v  1.7237 0.0000 2.0000
v  1.7237 10.0000 2.0000
v  0.7099 0.0000 -2.0000
v  0.7099 10.0000 -2.0000
v  1.7237 0.0000 -2.0000
v  1.7237 10.0000 -2.0000
# 16 vertices

vn 0.0000 0.0000 1.0000
vn -1.0000 0.0000 0.0000
vn 0.9239 0.0000 0.3827
vn 0.9239 -0.0000 -0.3827
vn 0.9239 0.0000 -0.3827
vn 0.3827 0.0000 0.9239
vn -0.0000 -0.0000 -1.0000
vn -0.0000 0.0000 -1.0000
vn 0.3827 -0.0000 -0.9239
vn 0.3827 0.0000 -0.9239
vn 0.0000 1.0000 -0.0000
# 11 vertex normals

vt 0.2748 0.5010 0.0000
vt 0.2748 0.9994 0.0000
vt 0.0010 0.9994 0.0000
vt 0.0010 0.5010 0.0000
vt 0.1670 0.9994 0.0000
vt 0.1670 0.5010 0.0000
vt 0.3255 0.9994 0.0000
vt 0.3255 0.5010 0.0000
vt 0.1531 0.5010 0.0000
vt 0.1531 0.9994 0.0000
vt 0.3113 0.5010 0.0000
vt 0.3113 0.9994 0.0000
vt 0.7691 0.9955 0.0000
vt 0.7691 0.8663 0.0000
vt 0.9535 0.8663 0.0000
vt 0.9535 0.9955 0.0000
vt 0.9864 0.8663 0.0000
vt 0.9864 0.9955 0.0000
vt 0.9953 0.8752 0.0000
vt 0.9953 0.9866 0.0000
# 20 texture coords

g m_demoSet_FenceCap
s 1
f 1/1/1 2/2/1 3/3/1 4/4/1 
s 8
f 3/3/2 5/5/2 6/6/2 4/4/2 
s 1
f 7/7/3 8/8/3 9/9/4 10/10/5 
f 11/11/6 8/8/3 7/7/3 12/12/6 
f 11/8/6 12/7/6 2/2/1 1/1/1 
f 13/1/7 6/4/7 5/3/7 14/2/8 
f 15/11/9 16/12/10 10/7/5 9/8/4 
f 15/8/9 13/1/7 14/2/8 16/7/10 
s off
f 5/13/11 3/14/11 2/15/11 14/16/11 
f 12/17/11 16/18/11 14/16/11 2/15/11 
f 7/19/11 10/20/11 16/18/11 12/17/11 
# 11 polygons

