# 3ds Max Wavefront OBJ Exporter v0.97b - (c)2007 guruware
# File Created: 06.07.2015 21:47:54

#
# object m_demoSet_WallLamp
#

v  0.7500 7.2500 2.5000
v  -0.7500 7.2500 2.5000
v  -0.7500 2.7500 2.5000
v  0.7500 2.7500 2.5000
v  -0.7500 2.7500 2.0000
v  0.7500 2.7500 2.0000
v  0.7500 7.2500 2.0000
v  -0.7500 7.2500 2.0000
v  0.2500 5.7500 2.2500
v  0.2500 5.7500 5.0000
v  -0.2500 5.7500 5.0000
v  -0.2500 5.7500 2.2500
v  -0.2500 6.2500 5.0000
v  -0.2500 6.2500 2.2500
v  0.2500 6.2500 5.0000
v  0.2500 6.2500 2.2500
v  0.2500 3.6856 2.2500
v  0.2500 5.7500 4.2500
v  -0.2500 5.7500 4.2500
v  -0.2500 3.6856 2.2500
v  -0.2500 5.7500 3.5000
v  -0.2500 4.3942 2.2500
v  0.2500 5.7500 3.5000
v  0.2500 4.3942 2.2500
v  0.2500 6.0432 5.7132
v  -0.2500 6.0432 5.7132
v  -0.2500 6.3968 5.3597
v  0.2500 6.3968 5.3597
v  0.2500 6.7236 5.9764
v  -0.2500 6.7236 5.9764
v  -0.2500 6.7236 5.4764
v  0.2500 6.7236 5.4764
v  0.2500 7.4059 5.7141
v  -0.2500 7.4059 5.7141
v  -0.2500 7.0524 5.3606
v  0.2500 7.0524 5.3606
v  0.2500 7.7424 4.9799
v  -0.2500 7.7424 4.9799
v  -0.2500 7.2424 4.9799
v  0.2500 7.2424 4.9799
v  0.2500 7.4185 4.2867
v  -0.2500 7.4185 4.2867
v  -0.2500 7.0649 4.6403
v  0.2500 7.0649 4.6403
v  0.2500 6.7236 4.0131
v  -0.2500 6.7236 4.0131
v  -0.2500 6.7236 4.5131
v  0.2500 6.7236 4.5131
v  -0.8106 5.1015 5.8106
v  0.8106 5.1015 5.8106
v  0.0000 5.7500 5.0000
v  0.8106 5.1015 4.1894
v  -0.8106 5.1015 4.1894
v  1.3205 4.3942 6.3205
v  -1.3205 4.3942 6.3205
v  0.0000 4.3942 5.0000
v  1.3205 4.3942 3.6795
v  -1.3205 4.3942 3.6795
v  0.6961 2.1560 4.3039
v  0.6961 2.1560 5.6961
v  -0.6961 2.1560 5.6961
v  -0.6961 2.1560 4.3039
v  0.9772 3.2661 5.9772
v  -0.9772 3.2661 5.9772
v  0.9772 3.2661 4.0228
v  -0.9772 3.2661 4.0228
v  1.0703 4.3942 6.0703
v  -1.0703 4.3942 6.0703
v  1.0703 4.3942 3.9297
v  -1.0703 4.3942 3.9297
# 70 vertices

vn 0.0000 -0.0000 1.0000
vn 0.0000 -1.0000 -0.0000
vn 1.0000 0.0000 -0.0000
vn 0.0000 1.0000 -0.0000
vn -1.0000 0.0000 -0.0000
vn 0.0000 -1.0000 0.0000
vn 0.0000 -0.9810 0.1938
vn -1.0000 0.0000 0.0000
vn 0.0000 0.9813 -0.1925
vn 1.0000 0.0000 0.0000
vn 0.0000 -0.6958 0.7182
vn -1.0000 -0.0000 0.0000
vn 0.0000 0.6778 -0.7352
vn 0.0000 -0.6997 0.7145
vn 0.0000 0.6913 -0.7226
vn 0.0000 -0.0010 1.0000
vn 0.0000 0.0021 -1.0000
vn 1.0000 -0.0000 -0.0000
vn 0.0000 0.6846 0.7289
vn 0.0000 -0.6619 -0.7496
vn 0.0000 1.0000 -0.0037
vn 0.0000 -1.0000 0.0093
vn 0.0000 0.6848 -0.7287
vn 0.0000 -0.6616 0.7499
vn -1.0000 -0.0000 -0.0000
vn 0.0000 0.3664 -0.9305
vn 0.0000 -0.3491 0.9371
vn -0.4513 0.7699 0.4513
vn 0.4513 0.7699 0.4513
vn 0.4513 0.7699 -0.4513
vn -0.4513 0.7699 -0.4513
vn 0.6782 -0.2830 0.6782
vn -0.6782 -0.2830 0.6782
vn 0.6782 -0.2830 -0.6782
vn -0.6782 -0.2830 -0.6782
vn -0.0000 -0.2455 0.9694
vn -0.0000 -0.1556 0.9878
vn 0.0000 -0.2455 0.9694
vn 0.9694 -0.2455 -0.0000
vn 0.9878 -0.1556 -0.0000
vn 0.0000 -0.2455 -0.9694
vn 0.0000 -0.1556 -0.9878
vn -0.9694 -0.2455 -0.0000
vn -0.9878 -0.1556 -0.0000
vn -0.0000 -0.0822 0.9966
vn 0.0000 -0.0822 0.9966
vn 0.9966 -0.0822 -0.0000
vn 0.0000 -0.0822 -0.9966
vn -0.9966 -0.0822 -0.0000
# 49 vertex normals

vt 0.3806 0.0289 0.0000
vt 0.4370 0.0289 0.0000
vt 0.4370 0.2001 0.0000
vt 0.3806 0.2001 0.0000
vt 0.4370 0.2192 0.0000
vt 0.3806 0.2192 0.0000
vt 0.3616 0.2001 0.0000
vt 0.3616 0.0289 0.0000
vt 0.3806 0.0098 0.0000
vt 0.4370 0.0098 0.0000
vt 0.4561 0.0289 0.0000
vt 0.4561 0.2001 0.0000
vt 0.4648 0.4904 0.0000
vt 0.4648 0.3417 0.0000
vt 0.4918 0.3417 0.0000
vt 0.4918 0.4904 0.0000
vt 0.4648 0.3000 0.0000
vt 0.4918 0.3000 0.0000
vt 0.4648 0.2605 0.0000
vt 0.4918 0.2605 0.0000
vt 0.4648 0.2210 0.0000
vt 0.4918 0.2210 0.0000
vt 0.4648 0.1773 0.0000
vt 0.4918 0.1773 0.0000
vt 0.4648 0.1359 0.0000
vt 0.4918 0.1359 0.0000
vt 0.4648 0.0955 0.0000
vt 0.4918 0.0955 0.0000
vt 0.4648 0.0685 0.0000
vt 0.4918 0.0685 0.0000
vt 0.4360 0.4706 0.0000
vt 0.3818 0.4706 0.0000
vt 0.4089 0.4434 0.0000
vt 0.3818 0.4163 0.0000
vt 0.4360 0.4163 0.0000
vt 0.3598 0.4925 0.0000
vt 0.4579 0.4925 0.0000
vt 0.3598 0.3944 0.0000
vt 0.4579 0.3944 0.0000
vt 0.4370 0.2343 0.0000
vt 0.4370 0.2908 0.0000
vt 0.3806 0.2908 0.0000
vt 0.3806 0.2343 0.0000
vt 0.4455 0.3419 0.0000
vt 0.3722 0.3419 0.0000
vt 0.4540 0.3931 0.0000
vt 0.3637 0.3931 0.0000
# 47 texture coords

g m_demoSet_WallLamp
s 4
f 1/1/1 2/2/1 3/3/1 4/4/1 
s 8
f 4/4/2 3/3/2 5/5/2 6/6/2 
s 16
f 1/1/3 4/4/3 6/7/3 7/8/3 
s 32
f 2/2/4 1/1/4 7/9/4 8/10/4 
s 64
f 3/3/5 2/2/5 8/11/5 5/12/5 
s 4
f 9/13/6 10/14/7 11/15/7 12/16/6 
s 1
f 12/13/8 11/14/5 13/15/5 14/16/8 
s 4
f 14/13/4 13/14/9 15/15/9 16/16/4 
s 1
f 9/13/3 16/16/3 15/15/10 10/14/10 
s off
f 17/13/11 18/16/11 19/15/11 20/14/11 
f 20/13/12 19/14/12 21/15/12 22/16/12 
f 22/15/13 21/16/13 23/13/13 24/14/13 
f 17/13/10 24/16/10 23/15/10 18/14/10 
s 4
f 25/17/14 26/18/14 11/15/7 10/14/7 
f 27/17/15 28/18/15 15/15/9 13/14/9 
s 1
f 28/18/10 25/17/10 10/14/10 15/15/10 
f 26/17/5 27/18/5 13/15/5 11/14/5 
s 4
f 29/19/16 30/20/16 26/18/14 25/17/14 
f 31/19/17 32/20/17 28/18/15 27/17/15 
s 1
f 32/20/18 29/19/18 25/17/10 28/18/10 
f 26/17/5 30/19/5 31/20/5 27/18/5 
s 4
f 33/21/19 34/22/19 30/20/16 29/19/16 
f 35/21/20 36/22/20 32/20/17 31/19/17 
s 1
f 29/19/18 32/20/18 36/22/3 33/21/3 
f 31/20/5 30/19/5 34/21/5 35/22/5 
s 4
f 37/23/21 38/24/21 34/22/19 33/21/19 
f 39/23/22 40/24/22 36/22/20 35/21/20 
s 1
f 33/21/3 36/22/3 40/24/10 37/23/10 
f 35/22/5 34/21/5 38/23/12 39/24/8 
s 4
f 41/25/23 42/26/23 38/24/21 37/23/21 
f 43/25/24 44/26/24 40/24/22 39/23/22 
s 1
f 40/24/10 44/26/3 41/25/10 37/23/10 
f 39/24/8 38/23/12 42/25/25 43/26/5 
s 4
f 45/27/26 46/28/26 42/26/23 41/25/23 
f 47/27/27 48/28/27 44/26/24 43/25/24 
s 1
f 41/25/10 44/26/3 48/28/10 45/27/10 
f 42/25/25 46/27/25 47/28/25 43/26/5 
s off
f 46/29/2 45/30/2 48/28/2 47/27/2 
s 1
f 49/31/28 50/32/29 51/33/4 
f 50/32/29 52/34/30 51/33/4 
f 52/34/30 53/35/31 51/33/4 
f 53/35/31 49/31/28 51/33/4 
s 5
f 54/36/32 55/37/33 56/33/2 
s 9
f 57/38/34 54/36/32 56/33/2 
s 5
f 56/33/2 58/39/35 57/38/34 
s 9
f 55/37/33 58/39/35 56/33/2 
s 5
f 50/32/29 49/31/28 55/37/33 54/36/32 
s 9
f 52/34/30 50/32/29 54/36/32 57/38/34 
s 5
f 53/35/31 52/34/30 57/38/34 58/39/35 
s 9
f 49/31/28 53/35/31 58/39/35 55/37/33 
s 1
f 59/40/2 60/41/2 61/42/2 62/43/2 
s 4
f 60/41/36 63/44/37 64/45/37 61/42/38 
s 8
f 59/41/39 65/44/40 63/45/40 60/42/39 
s 4
f 62/41/41 66/44/42 65/45/42 59/42/41 
s 8
f 61/41/43 64/44/44 66/45/44 62/42/43 
s 4
f 67/46/45 68/47/46 64/45/37 63/44/37 
s 8
f 69/46/47 67/47/47 63/45/40 65/44/40 
s 4
f 70/46/48 69/47/48 65/45/42 66/44/42 
s 8
f 68/46/49 70/47/49 66/45/44 64/44/44 
# 51 polygons - 8 triangles

