# 3ds Max Wavefront OBJ Exporter v0.97b - (c)2007 guruware
# File Created: 06.07.2015 21:38:20

#
# object m_demoSet_Roof_Corner
#

v  -5.0000 3.0000 3.0000
v  -4.0000 3.7897 3.1879
v  -5.0000 3.5092 2.9727
v  -3.0000 3.0000 3.0000
v  -2.0000 3.7897 3.1879
v  -3.0000 3.5092 2.9727
v  -1.0000 3.0000 3.0000
v  0.0000 3.7897 3.1879
v  -1.0000 3.5092 2.9727
v  1.0000 3.0000 3.0000
v  2.0000 3.7897 3.1879
v  1.0000 3.5092 2.9727
v  -5.0000 2.2500 3.5000
v  -5.0000 2.8000 3.5000
v  -5.0000 3.0000 3.3000
v  -5.0000 1.7500 3.0000
v  -4.9992 0.0000 -2.0000
v  -2.0000 0.0000 -2.0000
v  2.0045 0.0000 2.0045
v  -5.0000 0.0000 2.0000
v  3.5045 2.8000 3.5045
v  3.5045 2.2500 3.5045
v  2.0045 1.7500 2.0045
v  3.0045 1.7500 3.0045
v  -5.0000 1.7500 2.0000
v  -2.0000 1.7500 -2.0000
v  -4.9992 1.7500 -2.0000
v  -4.9999 3.0000 2.5000
v  2.0045 -0.0000 2.0045
v  2.8752 0.5442 2.8752
v  1.2000 0.5188 2.8310
v  1.2000 -0.0000 2.0009
v  -1.2000 -0.0000 2.0000
v  -1.2000 0.5190 2.8304
v  -3.8000 0.5190 2.8304
v  -3.8000 -0.0000 2.0000
v  2.8045 0.8250 3.0041
v  2.8045 1.7500 3.0041
v  1.2000 1.7500 3.0005
v  1.2000 0.8250 3.0005
v  -1.2000 0.8250 3.0000
v  -1.2000 1.7500 3.0000
v  -3.8000 1.7500 3.0000
v  -3.8000 0.8250 3.0000
v  1.0000 0.7358 2.8000
v  1.0000 1.7500 2.8000
v  1.0000 1.7500 2.0000
v  1.0000 0.2000 2.0000
v  -4.0000 0.7358 2.8000
v  -4.0000 1.7500 2.8000
v  -4.0000 1.7500 2.0000
v  -4.0000 0.2000 2.0000
v  -1.0000 1.7500 2.0000
v  -1.0000 1.7500 2.8000
v  -1.0000 0.7358 2.8000
v  -1.0000 0.2000 2.0000
v  -5.0000 7.0092 -1.0273
v  -5.0000 6.5000 -1.0000
v  -4.0000 6.7805 -0.7848
v  -4.0000 7.2897 -0.8121
v  -3.0000 6.5000 -1.0000
v  -3.0000 7.0092 -1.0273
v  -2.0000 6.7805 -0.7848
v  -2.0000 7.2897 -0.8121
v  -0.9852 6.5163 -0.9852
v  -1.0151 7.0193 -1.0151
v  -5.0000 5.2592 0.9727
v  -5.0000 4.7500 1.0000
v  -4.0000 5.0305 1.2152
v  -4.0000 5.5397 1.1879
v  -3.0000 4.7500 1.0000
v  -3.0000 5.2592 0.9727
v  -2.0000 5.0305 1.2152
v  -2.0000 5.5397 1.1879
v  -1.0000 4.7500 1.0000
v  -1.0000 5.2592 0.9727
v  0.0000 5.0305 1.2152
v  0.0000 5.5397 1.1879
v  1.0148 4.7663 1.0148
v  0.9849 5.2693 0.9849
v  -5.0000 8.7592 -3.0273
v  -5.0000 8.2500 -3.0000
v  -4.0000 8.5305 -2.7848
v  -4.0000 9.0397 -2.8121
v  -2.9852 8.2663 -2.9852
v  -3.0151 8.7693 -3.0151
v  1.9955 4.5425 1.9955
v  -2.0045 8.0425 -2.0045
v  -0.0045 6.2925 -0.0045
v  -4.0045 9.7925 -4.0045
v  -5.0000 10.0000 -5.0000
v  2.9849 3.5193 2.9849
v  3.0000 3.0000 -5.0000
v  3.1879 3.7897 -4.0000
v  3.0000 3.0000 -3.0000
v  3.1879 3.7897 -2.0000
v  3.0000 3.0000 -1.0000
v  3.1879 3.7897 -0.0000
v  3.0000 3.0000 1.0000
v  3.1879 3.7897 2.0000
v  3.0001 3.0000 3.0001
v  3.3000 3.0000 -5.0000
v  3.5000 2.8000 -5.0000
v  3.5000 2.2500 -5.0000
v  3.0000 1.7500 -5.0000
v  -2.0000 0.0000 -4.9992
v  2.0000 0.0000 -5.0000
v  2.0000 1.7500 -5.0000
v  -2.0000 1.7500 -4.9992
v  2.5000 3.0000 -4.9999
v  2.0009 -0.0000 1.2000
v  2.8310 0.5188 1.2000
v  2.0000 -0.0000 -1.2000
v  2.0000 -0.0000 -3.8000
v  2.8304 0.5190 -3.8000
v  2.8304 0.5190 -1.2000
v  3.0041 0.8250 2.8045
v  3.0004 0.8250 1.2000
v  3.0004 1.7500 1.2000
v  3.0041 1.7500 2.8045
v  3.0000 0.8250 -1.2000
v  3.0000 0.8250 -3.8000
v  3.0000 1.7500 -3.8000
v  3.0000 1.7500 -1.2000
v  2.8000 0.7358 1.0000
v  2.0000 0.2000 1.0000
v  2.0000 1.7500 1.0000
v  2.8000 1.7500 1.0000
v  2.8000 0.7358 -4.0000
v  2.0000 0.2000 -4.0000
v  2.0000 1.7500 -4.0000
v  2.8000 1.7500 -4.0000
v  2.0000 1.7500 -1.0000
v  2.0000 0.2000 -1.0000
v  2.8000 0.7358 -1.0000
v  2.8000 1.7500 -1.0000
v  -1.0273 7.0092 -5.0000
v  -0.8121 7.2897 -4.0000
v  -0.7848 6.7805 -4.0000
v  -1.0000 6.5000 -5.0000
v  -1.0273 7.0092 -3.0000
v  -1.0000 6.5000 -3.0000
v  -0.8121 7.2897 -2.0000
v  -0.7848 6.7805 -2.0000
v  0.9727 5.2592 -5.0000
v  1.1879 5.5397 -4.0000
v  1.2152 5.0305 -4.0000
v  1.0000 4.7500 -5.0000
v  0.9727 5.2592 -3.0000
v  1.0000 4.7500 -3.0000
v  1.1879 5.5397 -2.0000
v  1.2152 5.0305 -2.0000
v  0.9727 5.2592 -1.0000
v  1.0000 4.7500 -1.0000
v  1.1879 5.5397 -0.0000
v  1.2152 5.0305 -0.0000
v  -3.0273 8.7592 -5.0000
v  -2.8121 9.0397 -4.0000
v  -2.7848 8.5305 -4.0000
v  -3.0000 8.2500 -5.0000
v  2.9727 3.5092 -5.0000
v  2.9727 3.5092 -3.0000
v  2.9727 3.5092 -1.0000
v  2.9727 3.5092 1.0000
v  3.0001 3.0022 3.0001
v  3.3631 3.0006 3.3631
v  -4.9992 3.0000 -2.0000
v  -2.0000 3.0000 -4.9992
v  -5.0000 5.5000 -5.0000
v  -4.9991 9.5000 -4.9991
v  -2.0000 3.0000 -2.0000
v  -5.0000 10.7000 -5.0000
v  -5.0005 10.0000 -5.0005
v  -5.0000 10.7000 -4.6500
v  -5.0000 9.4313 -4.3500
v  -5.0000 10.4647 -4.3500
v  -4.6500 10.7000 -5.0000
v  -4.3500 10.4647 -5.0000
v  -4.3500 9.4313 -5.0000
v  2.8540 3.4647 3.5040
v  2.3468 3.0000 2.9968
v  -4.7000 10.7000 -4.3500
v  -4.3500 10.7000 -4.7000
v  3.5040 3.4647 2.8540
v  2.9968 3.0000 2.3468
v  3.5040 3.5181 3.5040
v  3.5045 3.0000 3.5045
v  3.5040 3.7000 3.1540
v  3.5040 3.0000 2.8540
v  3.1540 3.7000 3.5040
v  2.8540 3.0000 3.5040
v  -4.9990 10.0000 -4.9990
# 192 vertices

vn -0.1309 -0.0695 0.9890
vn 0.0000 0.4591 0.8884
vn -0.3063 0.4472 0.8403
vn -0.0000 -0.0701 0.9975
vn -0.0000 0.4591 0.8884
vn -0.0000 0.4698 0.8828
vn 0.0000 -0.0701 0.9975
vn -0.0020 0.4574 0.8893
vn 0.0000 0.4698 0.8828
vn -0.0031 0.4575 0.8892
vn 0.0013 0.4663 0.8846
vn -1.0000 0.0000 -0.0000
vn 0.0000 -1.0000 -0.0000
vn -0.0000 -1.0000 -0.0000
vn -0.0029 0.2421 0.9702
vn -0.0005 0.3827 0.9239
vn -0.0005 -0.3827 0.9239
vn -0.0005 -0.2878 0.9577
vn 0.0000 -1.0000 0.0000
vn -0.0003 -0.8332 0.5529
vn -0.0002 -0.9239 0.3826
vn 0.0000 0.0000 -1.0000
vn -1.0000 0.0001 -0.0001
vn -1.0000 0.0000 -0.0001
vn 0.2854 -0.9149 0.2854
vn 0.5469 -0.6384 0.5416
vn -0.3394 -0.6631 0.6672
vn -0.2988 -0.8092 0.5058
vn 0.3002 -0.8042 0.5129
vn 0.3407 -0.6651 0.6645
vn -0.3347 -0.6628 0.6699
vn -0.2961 -0.8100 0.5062
vn 0.3417 -0.1655 0.9251
vn 0.3816 0.0000 0.9243
vn -0.3842 0.0000 0.9232
vn -0.3452 -0.2082 0.9152
vn 0.3407 -0.2110 0.9162
vn 0.3827 0.0000 0.9239
vn -0.3827 0.0000 0.9239
vn -0.3407 -0.2110 0.9162
vn -0.8700 -0.2341 0.4338
vn -0.9241 0.0000 0.3822
vn -0.8371 -0.4625 0.2921
vn -0.8696 -0.2345 0.4345
vn -0.9239 0.0000 0.3827
vn -0.8364 -0.4634 0.2927
vn 1.0000 0.0000 -0.0000
vn 0.9239 0.0000 0.3827
vn 0.8694 -0.2386 0.4326
vn 0.8279 -0.4660 0.3121
vn -0.3149 0.5073 0.8022
vn 0.0000 0.5345 0.8452
vn -0.0000 0.5345 0.8452
vn -0.0004 0.4682 0.8836
vn -0.0101 0.4724 0.8813
vn -0.0042 0.5338 0.8456
vn 0.1506 0.6234 0.7673
vn 0.2744 0.3434 0.8982
vn -0.0019 0.5328 0.8462
vn -0.0041 0.5338 0.8456
vn -0.3069 0.4464 0.8405
vn -0.0083 0.4705 0.8824
vn 0.1475 0.6211 0.7697
vn -0.1937 0.8279 0.5263
vn -0.1983 0.8293 0.5225
vn -0.3354 0.7974 0.5016
vn -0.0006 -0.0000 1.0000
vn -0.0006 0.0000 1.0000
vn 0.2757 0.3254 0.9045
vn 0.9890 -0.0695 -0.1309
vn 0.8884 0.4591 0.0000
vn 0.9975 -0.0701 -0.0000
vn 0.8884 0.4591 -0.0000
vn 0.9975 -0.0701 0.0000
vn 0.8893 0.4574 -0.0020
vn 0.8892 0.4575 -0.0031
vn 0.9893 -0.0821 0.1210
vn -0.0000 -1.0000 0.0000
vn 0.9705 0.2413 -0.0005
vn 0.9577 -0.2878 -0.0005
vn 0.9239 -0.3827 -0.0005
vn 0.9245 0.3813 -0.0032
vn 0.3826 -0.9239 -0.0002
vn 0.5529 -0.8332 -0.0003
vn -0.0001 0.0001 -1.0000
vn -0.0001 0.0000 -1.0000
vn -0.0000 0.0000 -1.0000
vn 0.5125 -0.8035 -0.3029
vn 0.6643 -0.6644 -0.3426
vn 0.5062 -0.8100 0.2961
vn 0.5129 -0.8042 -0.3002
vn 0.6645 -0.6651 -0.3407
vn 0.6699 -0.6628 0.3347
vn 0.9257 -0.1695 0.3381
vn 0.9157 -0.2108 -0.3423
vn 0.9232 0.0000 -0.3842
vn 0.9243 0.0000 0.3816
vn 0.9162 -0.2110 0.3407
vn 0.9162 -0.2110 -0.3407
vn 0.9239 0.0000 -0.3827
vn 0.4320 -0.2383 -0.8698
vn 0.3115 -0.4650 -0.8287
vn 0.3822 0.0000 -0.9241
vn 0.4326 -0.2386 -0.8694
vn 0.3121 -0.4660 -0.8279
vn 0.3827 0.0000 -0.9239
vn -0.0000 0.0000 1.0000
vn 0.2927 -0.4634 0.8364
vn 0.4345 -0.2345 0.8696
vn 0.8403 0.4472 -0.3063
vn 0.8462 0.5328 -0.0019
vn 0.8828 0.4698 -0.0000
vn 0.8022 0.5073 -0.3149
vn 0.8846 0.4663 0.0013
vn 0.8452 0.5345 -0.0000
vn 0.8456 0.5338 -0.0042
vn 0.8813 0.4724 -0.0101
vn 0.8982 0.3434 0.2744
vn 0.7673 0.6234 0.1506
vn 0.8828 0.4698 0.0000
vn 0.8452 0.5345 0.0000
vn 0.8453 0.5342 -0.0046
vn 0.5263 0.8279 -0.1937
vn 0.5028 0.7969 -0.3349
vn 0.5235 0.8280 -0.2010
vn 0.3812 0.9245 -0.0031
vn 0.0000 1.0000 -0.0003
vn 0.0045 1.0000 -0.0001
vn 0.6527 0.7576 -0.0004
vn 1.0000 -0.0000 -0.0006
vn 1.0000 0.0000 -0.0006
vn 0.9045 0.3254 0.2757
vn -1.0000 0.0000 -0.0002
vn 0.0004 0.0002 -1.0000
vn 0.0001 0.0002 -1.0000
vn -0.0002 0.0000 -1.0000
vn 0.1210 -0.0821 0.9893
vn -0.0001 1.0000 0.0045
vn -0.0003 1.0000 -0.0000
vn -0.0004 0.9239 0.3827
vn -0.0050 0.7545 0.6563
vn -1.0000 0.0007 -0.0000
vn -1.0000 -0.0000 0.0008
vn -1.0000 0.0005 0.0004
vn 0.0000 0.0007 -1.0000
vn 0.0008 -0.0000 -1.0000
vn 0.0004 0.0005 -1.0000
vn -0.5838 0.2214 0.7811
vn -0.5444 0.4288 0.7210
vn -0.7071 -0.0000 0.7071
vn -0.1662 0.9720 0.1662
vn -0.1112 0.8650 0.4892
vn 0.4892 0.8650 -0.1112
vn 0.1662 0.9720 -0.1662
vn 0.7811 0.2214 -0.5838
vn 0.7071 0.0000 -0.7071
vn 0.7071 -0.0000 -0.7071
vn 0.7210 0.4288 -0.5444
vn 0.0000 1.0000 -0.0000
vn 0.7071 0.0014 0.7071
vn 0.7071 0.0006 0.7071
vn 1.0000 0.0007 -0.0001
vn 1.0000 -0.0000 -0.0008
vn 1.0000 0.0003 -0.0006
vn -0.0001 0.0007 1.0000
vn -0.0006 0.0003 1.0000
vn -0.0008 -0.0000 1.0000
vn 0.6061 0.7856 0.1248
vn 0.1248 0.7856 0.6061
vn 0.4188 0.8057 0.4188
vn 0.0000 -0.7682 -0.6402
vn -0.3590 -0.8615 -0.3590
vn -0.6402 -0.7682 -0.0000
vn -1.0000 -0.0000 -0.0002
vn -1.0000 0.0002 0.0001
vn -0.0002 -0.0000 -1.0000
vn -1.0000 0.0002 0.0004
# 177 vertex normals

vt 0.0136 0.0123 0.0000
vt 0.0584 0.0338 0.0000
vt 0.0136 0.0338 0.0000
vt 0.6366 0.6499 0.0000
vt 0.6366 0.6654 0.0000
vt 0.6423 0.6711 0.0000
vt 0.6508 0.6711 0.0000
vt 0.6508 0.6357 0.0000
vt 0.8229 0.6925 0.0000
vt 0.8229 0.8231 0.0000
vt 0.9862 0.9866 0.0000
vt 0.9862 0.6925 0.0000
vt 0.9041 0.5962 0.0000
vt 0.5093 0.5962 0.0000
vt 0.5093 0.5750 0.0000
vt 0.9041 0.5750 0.0000
vt 0.8358 0.5092 0.0000
vt 0.8813 0.5478 0.0000
vt 0.5093 0.5478 0.0000
vt 0.5093 0.5092 0.0000
vt 0.1500 0.6000 0.0000
vt 0.1500 0.5010 0.0000
vt 0.0010 0.5010 0.0000
vt 0.0010 0.6000 0.0000
vt 0.6791 0.6357 0.0000
vt 0.6649 0.6711 0.0000
vt 0.6048 0.0038 0.0000
vt 0.6048 0.0464 0.0000
vt 0.5488 0.0464 0.0000
vt 0.5488 0.0038 0.0000
vt 0.9041 0.5225 0.0000
vt 0.9041 0.5652 0.0000
vt 0.7915 0.5652 0.0000
vt 0.7915 0.5225 0.0000
vt 0.5977 0.0565 0.0000
vt 0.5977 0.0965 0.0000
vt 0.5488 0.0965 0.0000
vt 0.5488 0.0565 0.0000
vt 0.9041 0.6151 0.0000
vt 0.7915 0.6151 0.0000
vt 0.7915 0.5750 0.0000
vt 0.5381 0.0565 0.0000
vt 0.5381 0.0965 0.0000
vt 0.5035 0.0965 0.0000
vt 0.5035 0.0332 0.0000
vt 0.7816 0.5750 0.0000
vt 0.7816 0.6151 0.0000
vt 0.7471 0.6151 0.0000
vt 0.7471 0.5518 0.0000
vt 0.9484 0.6151 0.0000
vt 0.9139 0.6151 0.0000
vt 0.9138 0.5750 0.0000
vt 0.9484 0.5518 0.0000
vt 0.0136 0.2645 0.0000
vt 0.0136 0.2444 0.0000
vt 0.0584 0.2506 0.0000
vt 0.0584 0.2707 0.0000
vt 0.1032 0.2444 0.0000
vt 0.1032 0.2645 0.0000
vt 0.0136 0.1466 0.0000
vt 0.0136 0.1263 0.0000
vt 0.0584 0.1326 0.0000
vt 0.0584 0.1528 0.0000
vt 0.1032 0.1263 0.0000
vt 0.1032 0.1466 0.0000
vt 0.0136 0.3832 0.0000
vt 0.0136 0.3626 0.0000
vt 0.0584 0.3688 0.0000
vt 0.0584 0.3891 0.0000
vt 0.1032 0.3626 0.0000
vt 0.1032 0.3832 0.0000
vt 0.1032 0.0338 0.0000
vt 0.0584 0.0822 0.0000
vt 0.0584 0.3192 0.0000
vt 0.0584 0.1992 0.0000
vt 0.0584 0.4385 0.0000
vt 0.0136 0.4823 0.0000
vt 0.3500 0.5010 0.0000
vt 0.3500 0.6000 0.0000
vt 0.1032 0.0123 0.0000
vt 0.7061 0.8231 0.0000
vt 0.7061 0.9866 0.0000
vt 0.6614 0.0038 0.0000
vt 0.6614 0.0464 0.0000
vt 0.6120 0.0565 0.0000
vt 0.6614 0.0565 0.0000
vt 0.6614 0.0965 0.0000
vt 0.6120 0.0965 0.0000
vt 0.6715 0.0565 0.0000
vt 0.7060 0.0332 0.0000
vt 0.7060 0.0965 0.0000
vt 0.6715 0.0965 0.0000
vt 0.5093 0.6112 0.0000
vt 0.5093 0.6233 0.0000
vt 0.8811 0.6233 0.0000
vt 0.8977 0.6112 0.0000
vt 0.7922 0.6357 0.0000
vt 0.7922 0.6711 0.0000
vt 0.1670 0.5010 0.0000
vt 0.1670 0.6000 0.0000
vt 0.6406 0.3550 0.0000
vt 0.8914 0.3550 0.0000
vt 1.0000 0.5000 0.0000
vt 0.5000 0.5000 0.0000
vt 0.9610 0.6711 0.0000
vt 0.8766 0.6711 0.0000
vt 0.8766 0.6357 0.0000
vt 0.9610 0.6357 0.0000
vt 0.2462 0.1010 0.0000
vt 0.2462 0.0774 0.0000
vt 0.2542 0.1010 0.0000
vt 0.2667 0.0581 0.0000
vt 0.2667 0.0912 0.0000
vt 0.2378 0.1010 0.0000
vt 0.2256 0.0912 0.0000
vt 0.2256 0.0582 0.0000
vt 0.1439 0.0172 0.0000
vt 0.1439 0.4564 0.0000
vt 0.1184 0.4411 0.0000
vt 0.1184 0.0297 0.0000
vt 0.1582 0.4708 0.0000
vt 0.1582 0.4564 0.0000
vt 0.1750 0.4564 0.0000
vt 0.1750 0.4708 0.0000
vt 0.1893 0.0172 0.0000
vt 0.2148 0.0297 0.0000
vt 0.2148 0.4411 0.0000
vt 0.1893 0.4564 0.0000
vt 0.1666 0.4792 0.0000
vt 0.2462 0.0264 0.0000
vt 0.2462 0.0089 0.0000
vt 0.2580 0.0326 0.0000
vt 0.2681 0.0089 0.0000
vt 0.2681 0.0246 0.0000
vt 0.2344 0.0326 0.0000
vt 0.2242 0.0247 0.0000
vt 0.2242 0.0090 0.0000
vt 0.1750 0.0148 0.0000
vt 0.1582 0.0148 0.0000
vt 0.1666 0.0045 0.0000
vt 0.1320 0.0091 0.0000
vt 0.2013 0.0091 0.0000
vt 0.7555 0.5000 0.0000
vt 0.1750 0.0507 0.0000
vt 0.1582 0.0507 0.0000
vt 0.5381 0.0038 0.0000
vt 0.5381 0.0464 0.0000
vt 0.7816 0.5225 0.0000
vt 0.7816 0.5652 0.0000
vt 0.9139 0.5652 0.0000
vt 0.9139 0.5225 0.0000
vt 0.6715 0.0464 0.0000
vt 0.6715 0.0038 0.0000
# 153 texture coords

g m_demoSet_Roof_Corner
s 1
f 1/1/1 2/2/2 3/3/3 
f 4/1/4 5/2/5 6/3/6 
f 7/1/7 8/2/8 9/3/9 
f 10/1/4 11/2/10 12/3/11 
s off
f 13/4/12 14/5/12 15/6/12 1/7/12 
f 13/4/12 1/7/12 16/8/12 
s 8
f 17/9/13 18/10/14 19/11/14 20/12/13 
s 4
f 21/13/15 14/14/16 13/15/17 22/16/18 
f 23/17/19 24/18/20 16/19/21 25/20/13 
s 32
f 26/21/22 18/22/22 17/23/22 27/24/22 
s 64
f 25/25/23 16/8/12 28/26/24 
s 2
f 29/27/25 30/28/26 31/29/27 32/30/28 
f 33/31/29 34/32/30 35/33/31 36/34/32 
f 37/35/33 38/36/34 39/37/35 40/38/36 
f 41/16/37 42/39/38 43/40/39 44/41/40 
f 45/42/41 46/43/42 47/44/12 48/45/43 
f 49/46/44 50/47/45 51/48/12 52/49/46 
f 53/50/47 54/51/48 55/52/49 56/53/50 
s 1
f 57/54/3 58/55/51 59/56/9 60/57/52 
f 60/57/52 59/56/9 61/58/53 62/59/54 
f 62/54/54 61/55/53 63/56/55 64/57/56 
f 63/56/55 65/58/57 66/59/58 64/57/56 
f 67/60/3 68/61/51 69/62/9 70/63/52 
f 69/62/9 71/64/53 72/65/6 70/63/52 
f 72/60/6 71/61/53 73/62/6 74/63/59 
f 73/62/6 75/64/52 76/65/11 74/63/59 
f 76/60/11 75/61/52 77/62/55 78/63/60 
f 77/62/55 79/64/57 80/65/58 78/63/60 
f 81/66/61 82/67/51 83/68/62 84/69/60 
f 83/68/62 85/70/63 86/71/58 84/69/60 
f 68/61/51 3/3/3 2/2/2 69/62/9 
f 2/2/2 6/72/6 71/64/53 69/62/9 
f 71/61/53 6/3/6 5/2/5 73/62/6 
f 5/2/5 9/72/9 75/64/52 73/62/6 
f 75/61/52 9/3/9 8/2/8 77/62/55 
f 8/2/8 12/72/11 79/64/57 77/62/55 
f 12/3/11 11/2/10 87/73/64 79/61/57 
f 82/67/51 57/54/3 60/57/52 83/68/62 
f 83/68/62 60/57/52 62/59/54 85/70/63 
f 62/54/54 64/57/56 88/74/64 85/67/63 
f 58/55/51 67/60/3 70/63/52 59/56/9 
f 70/63/52 72/65/6 61/58/53 59/56/9 
f 61/55/53 72/60/6 74/63/59 63/56/55 
f 74/63/59 76/65/11 65/58/57 63/56/55 
f 76/60/11 78/63/60 89/75/64 65/55/57 
f 81/66/61 84/69/60 90/76/65 91/77/66 
s 4
f 24/18/20 22/16/18 13/15/17 16/19/21 
s 16
f 19/78/67 23/79/67 25/24/67 20/23/68 
s 1
f 87/73/64 11/2/10 92/72/69 
f 88/74/64 64/57/56 66/59/58 
f 89/75/64 78/63/60 80/65/58 
f 90/76/65 84/69/60 86/71/58 
f 93/1/70 94/2/71 95/80/72 
f 95/1/72 96/2/73 97/80/74 
f 97/1/74 98/2/75 99/80/72 
f 99/1/72 100/2/76 101/80/77 
s off
f 93/7/22 102/6/22 103/5/22 104/4/22 
f 93/7/22 104/4/22 105/8/22 
s 8
f 106/81/78 107/82/78 19/11/14 18/10/14 
f 21/13/79 22/16/80 104/15/81 103/14/82 
f 23/17/19 108/20/13 105/19/83 24/18/84 
s 16
f 26/21/12 109/24/12 106/23/12 18/22/12 
s 128
f 108/25/85 110/26/86 105/8/87 
s 2
f 29/27/25 111/83/88 112/84/89 30/28/26 
f 113/34/90 114/31/91 115/32/92 116/33/93 
f 117/85/94 118/86/95 119/87/96 120/88/97 
f 121/41/98 122/16/99 123/39/100 124/40/48 
f 125/89/101 126/90/102 127/91/22 128/92/103 
f 129/52/104 130/53/105 131/50/22 132/51/106 
f 133/48/107 134/49/108 135/46/109 136/47/38 
s 1
f 137/54/110 138/57/111 139/56/112 140/55/113 
f 139/56/112 138/57/111 141/59/114 142/58/115 
f 141/54/114 143/57/116 144/56/117 142/55/115 
f 66/59/118 65/58/119 144/56/117 143/57/116 
f 145/60/110 146/63/115 147/62/120 148/61/113 
f 147/62/120 146/63/115 149/65/112 150/64/115 
f 149/60/112 151/63/111 152/62/112 150/61/115 
f 152/62/112 151/63/111 153/65/114 154/64/121 
f 153/60/114 155/63/116 156/62/117 154/61/121 
f 80/65/118 79/64/119 156/62/117 155/63/116 
f 157/66/110 158/69/122 159/68/117 160/67/113 
f 86/71/118 85/70/119 159/68/117 158/69/122 
f 148/61/113 147/62/120 94/2/71 161/3/110 
f 94/2/71 147/62/120 150/64/115 162/72/112 
f 150/61/115 152/62/112 96/2/73 162/3/112 
f 96/2/73 152/62/112 154/64/121 163/72/120 
f 154/61/121 156/62/117 98/2/75 163/3/120 
f 98/2/75 156/62/117 79/64/119 164/72/114 
f 87/73/123 100/2/76 164/3/114 79/61/119 
f 160/67/113 159/68/117 138/57/111 137/54/110 
f 138/57/111 159/68/117 85/70/119 141/59/114 
f 88/74/123 143/57/116 141/54/114 85/67/119 
f 140/55/113 139/56/112 146/63/115 145/60/110 
f 146/63/115 139/56/112 142/58/115 149/65/112 
f 142/55/115 144/56/117 151/63/111 149/60/112 
f 151/63/111 144/56/117 65/58/119 153/65/114 
f 89/75/123 155/63/116 153/60/114 65/55/119 
f 91/77/124 90/76/125 158/69/122 157/66/110 
s 8
f 102/93/126 93/94/127 165/95/128 166/96/129 
f 24/18/84 105/19/83 104/15/81 22/16/80 
s 1
f 19/78/130 107/23/131 108/24/130 23/79/130 
f 87/73/123 92/72/132 100/2/76 
f 88/74/123 66/59/118 143/57/116 
f 89/75/123 80/65/118 155/63/116 
f 90/76/125 86/71/118 158/69/122 
s 64
f 27/97/133 25/25/23 167/98/24 
f 17/99/133 20/23/133 25/24/23 27/100/133 
s 128
f 168/101/86 169/102/134 170/103/135 110/104/86 
f 106/99/136 109/100/136 108/24/85 107/23/136 
s off
f 167/105/22 171/106/22 26/107/22 27/108/22 
f 168/98/12 109/97/12 26/107/12 171/106/12 
s 1
f 4/80/4 6/72/6 2/2/2 
f 4/1/4 7/80/7 5/2/5 
f 7/80/7 9/72/9 5/2/5 
f 7/1/7 10/80/4 8/2/8 
f 10/80/4 12/72/11 8/2/8 
f 10/1/4 101/80/137 11/2/10 
f 101/80/137 92/72/69 11/2/10 
f 100/2/76 92/72/132 101/80/77 
f 98/2/75 164/72/114 99/80/72 
f 99/1/72 164/3/114 100/2/76 
f 96/2/73 163/72/120 97/80/74 
f 97/1/74 163/3/120 98/2/75 
f 94/2/71 162/72/112 95/80/72 
f 95/1/72 162/3/112 96/2/73 
f 93/1/70 161/3/110 94/2/71 
f 1/1/1 4/80/4 2/2/2 
s 4
f 165/95/138 1/94/139 15/93/140 166/96/141 
s off
f 172/109/142 173/110/142 174/111/142 
f 173/110/143 175/112/143 176/113/143 
f 173/110/144 176/113/144 174/111/144 
f 172/109/145 177/114/145 173/110/145 
f 173/110/146 178/115/146 179/116/146 
f 173/110/147 177/114/147 178/115/147 
s 1
f 180/117/148 176/118/149 175/119/150 181/120/150 
f 174/121/151 176/118/149 182/122/152 
f 183/123/153 177/124/154 174/121/151 182/122/152 
f 184/125/155 185/126/156 179/127/157 178/128/158 
f 177/124/154 172/129/159 174/121/151 
f 178/128/158 177/124/154 183/123/153 
s 2
f 186/130/160 187/131/161 188/132/162 
f 187/131/161 189/133/163 184/134/164 
f 187/131/161 184/134/164 188/132/162 
f 186/130/160 190/135/165 187/131/161 
f 187/131/161 180/136/166 191/137/167 
f 187/131/161 190/135/165 180/136/166 
s 1
f 183/123/153 188/138/168 184/125/155 178/128/158 
f 188/138/168 183/123/153 182/122/152 190/139/169 
f 190/139/169 186/140/170 188/138/168 
f 181/120/150 191/141/150 180/117/148 
f 184/125/155 189/142/157 185/126/156 
f 180/117/148 190/139/169 182/122/152 176/118/149 
s 2
f 167/101/171 169/104/172 171/143/172 
f 171/143/172 169/104/172 168/101/173 
s 64
f 28/122/24 1/123/174 192/144/175 170/145/175 
s 128
f 108/25/85 109/97/136 168/98/86 
s 64
f 25/25/23 28/26/24 167/98/24 
s 4
f 15/93/140 14/14/16 21/13/15 166/96/141 
s 8
f 166/96/129 21/13/79 103/14/82 102/93/126 
s 2
f 44/41/40 49/46/44 35/33/31 
f 31/29/27 40/38/36 45/42/41 
f 34/32/30 55/52/49 41/16/37 
f 115/32/92 129/52/104 122/16/99 
f 125/89/101 118/86/95 112/84/89 
f 121/41/98 135/46/109 116/33/93 
f 30/28/26 117/85/94 37/35/33 
f 48/146/43 32/30/28 31/29/27 45/147/41 
f 40/38/36 31/29/27 30/28/26 37/35/33 
f 52/148/46 36/34/32 35/33/31 49/149/44 
f 55/150/49 34/32/30 33/31/29 56/151/50 
f 44/41/40 35/33/31 34/32/30 41/16/37 
f 45/42/41 40/38/36 39/37/35 46/43/42 
f 120/88/97 38/36/34 37/35/33 117/85/94 
f 49/46/44 44/41/40 43/40/39 50/47/45 
f 54/51/48 42/39/38 41/16/37 55/52/49 
f 117/85/94 30/28/26 112/84/89 118/86/95 
f 125/152/101 112/84/89 111/83/88 126/153/102 
f 121/41/98 116/33/93 115/32/92 122/16/99 
f 134/148/108 113/34/90 116/33/93 135/149/109 
f 129/150/104 115/32/92 114/31/91 130/151/105 
f 128/92/103 119/87/96 118/86/95 125/89/101 
f 135/46/109 121/41/98 124/40/48 136/47/38 
f 132/51/106 123/39/100 122/16/99 129/52/104 
s off
f 82/67/12 81/66/12 91/77/12 
f 58/55/12 57/54/12 82/67/12 
f 68/61/12 67/60/12 58/55/12 
f 1/1/12 3/3/12 68/61/12 
f 148/61/22 161/3/22 93/1/22 
f 140/55/22 145/60/22 148/61/22 
f 160/67/22 137/54/22 140/55/22 
f 91/77/22 157/66/22 160/67/22 
s 128
f 110/122/86 170/145/135 192/144/135 93/123/176 
s 64
f 167/101/24 28/104/24 170/103/175 169/102/177 
s 128
f 108/25/85 168/98/86 110/26/86 
f 110/26/86 93/7/176 105/8/87 
s 64
f 16/8/12 1/7/174 28/26/24 
# 119 polygons - 77 triangles

